<?xml version="1.0" encoding="utf-8"?>
<!-- Generator: Adobe Illustrator 21.0.0, SVG Export Plug-In . SVG Version: 6.00 Build 0)  -->
<svg version="1.1" id="Layer_1" xmlns="http://www.w3.org/2000/svg" xmlns:xlink="http://www.w3.org/1999/xlink" x="0px" y="0px"
	 viewBox="0 0 1440 900" style="enable-background:new 0 0 1440 900;" xml:space="preserve">
<style type="text/css">
	.st0{opacity:0.23;fill:#FFFFFF;enable-background:new    ;}
	.st1{fill:#FFFFFF;fill-opacity:0.54;}
	.st2{fill:#00796B;}
	.st3{fill:#00897B;}
	.st4{fill:#045B4C;}
	.st5{fill:#026355;}
	.st6{fill:#66BB6A;}
	.st7{fill:#5BAF5D;}
	.st8{fill:#509B50;}
	.st9{fill:#6EC470;}
	.st10{fill:#0097A7;}
</style>
<g id="Layer_1_1_">
	<path class="st0" d="M1444.5,955.5V406c-17.9,9.3-35.7,19.1-55.9,22c-13.9,1.9-28.2,0.6-41.8,3.5c-38.8,8.5-56.9,48.4-93,63.6
		c-25.5,10.6-58.1,8.1-79.3,24.3c-18.5,14.1-22.2,38.4-39.7,53.6c-18.9,16.2-49.4,17.7-75.4,12.9c-26.2-4.8-50.7-15-77.1-18.7
		c-33.9-4.8-69.6,1.5-98.6,17.4c-11.2,6.2-99.5,69-187.7,141.2c7.3,5.6-126.3-92.8-136-98.2c-28.9-15.8-64.6-22.2-98.6-17.4
		c-26.4,3.7-51.1,13.9-77.1,18.7c-26.2,4.8-56.5,3.3-75.4-12.9c-17.5-15-21.2-39.3-39.7-53.6c-21.2-16.2-53.8-13.7-79.3-24.3
		c-36.1-15-54-55-93-63.6c-13.5-3.1-28-1.5-41.7-3.5c-20.6-2.9-38.4-12.7-56.3-22v506.3h1445.5v0.2H1444.5z"/>
	<path class="st0" d="M1381.2,519.8c-14.8,1.9-30.5,0.6-45.1,3.5c-41.8,8.5-61.3,48.4-100.3,63.6c-27.4,10.6-62.7,8.1-85.4,24.3
		c-20.1,14.1-23.9,38.4-42.8,53.6c-20.4,16.2-53.2,17.7-81.4,12.9c-28.2-4.8-54.8-15-83.1-18.7c-36.5-4.8-75,1.5-106.3,17.4
		c-12.1,6.2-107.2,69-202.3,141.2c7.9,5.6-136.2-92.8-146.6-98.2c-31.1-15.8-69.8-22.2-106.3-17.4c-28.5,3.7-55,13.9-83.1,18.7
		c-28.2,4.8-60.9,3.3-81.4-12.9c-18.9-15-23-39.3-43-53.6c-22.8-16.2-58.1-13.7-85.4-24.3C53.4,616.2,33.9,581.7-1,569.4v477.9
		h1442.6V497.8C1422.3,507.1,1403.2,516.9,1381.2,519.8z"/>
</g>
<g id="Layer_3">
	<path class="st1" d="M437.3,206.1c-5.1-2-11.6,0-17.8,3.3c-2.7-9.2-8.4-21.3-20.6-27c-20.9-10-31.9,21.3-31.9,21.3
		s-20.9-63.2-57.4-55s-30.1,55-30.1,55s-10-20.4-32.9-16.8c-22.7,3.7-13.7,43.1-13.7,43.1c-29,4.9-46.4,11.9-46.4,11.9h313.6
		l-48.6-12.7C450.8,222.7,448.1,210.2,437.3,206.1z"/>
	<path class="st1" d="M1131.3,236.9c4.5-1.8,10.2,0,15.7,2.9c2.4-8,7.4-18.6,18-23.7c18.4-8.8,28,18.8,28,18.8s18.4-55.4,50.3-48.4
		c31.9,7.2,26.4,48.4,26.4,48.4s8.8-18,28.8-14.7c20,3.1,11.9,37.8,11.9,37.8c25.6,4.1,40.7,10.4,40.7,10.4h-274.8l42.7-11.2
		C1119.6,251.3,1121.9,240.4,1131.3,236.9z"/>
	<path class="st1" d="M135,310.9c2.5-1,5.7,0,8.6,1.6c1.4-4.5,4.1-10.2,9.8-13.1c10.2-4.9,15.3,10.2,15.3,10.2s10.2-30.3,27.6-26.4
		s14.5,26.4,14.5,26.4s4.9-9.8,15.9-8s6.7,20.8,6.7,20.8c14.1,2.3,22.3,5.7,22.3,5.7h-151L128,322
		C128.4,318.7,129.8,312.7,135,310.9z"/>
</g>
<g id="Layer_5">
	<path class="st2" d="M1199.8,783.5l81.1-3.1l-378-145.2l-181.2-53.9l-79-50.5L529,475l-167,78.3l-120,48.3L-11,693l1,90.6h88.4
		L1199.8,783.5L1199.8,783.5z"/>
	<path class="st3" d="M749.2,783.5l-189.4-72.7l-181.2-54.1l-79-50.3l-113.7-56l-167,78.3L-10,640.4v143.1H749.2z"/>
	<path class="st3" d="M1451.1,783.5V648.3l-58.5-21.3l-167-78.3l-113.7,56l-79,50.3l-181.2,54.1l-193.9,74.4H1451.1z"/>
	<path class="st4" d="M240.3,744.6c1.2,0.2,2.1,1,2.1,1.7c0,1-0.8,1-2,1.2s-2,0.6-2.3,1.2c25.2-2.9,50.3-6.3,75.3-8.2
		c59.9-4.6,120.4-7.7,180.4-6.1c34.5,0.8,68.9,3.3,103.2,5.6c-1.6-1-1.4-1.9,0.4-2.9c0.6-0.2,1.2-0.6,1.6-0.8
		c1.6-0.8,1.8-1.3,0.6-2.3c-0.8-0.6-2-1.2-2.9-1.7c-1.4-0.8-2.7-1.3-4.1-2.1c-0.8-0.4-1-1,0.2-1.3c0.4-0.2,0.8-0.2,1.2-0.4
		c1-0.4,2.1-0.8,2.9-1.2c1-0.4,1-1,0.2-1.5c-0.8-0.6-1.4-1-2.1-1.5c-1.4-0.8-2.9-1.5-4.3-2.5c-1.6-1-1.4-1.3,0.2-2.3
		c2-1.3,3.9-2.5,5.7-3.8c2-1.5,3.3-3.3,3.3-5.4c0-0.8-0.2-1.3-1.6-1.5c-1.6-0.2-3.1-0.6-4.9-0.8c-3.5-0.4-5.5-2.9-4.3-4.6
		c0.8-1.3,2.3-2.1,4.1-2.9c2.5-1,4.5-2.5,5.5-4.2c0.4-1,0.8-1.9,0-3.1c-0.4,0-0.6,0-0.8,0.2c-3.3,0.6-4.7,0-4.3-2.3
		c0-0.6,0.2-1.2,0.2-1.7c0-0.4-0.4-0.6-0.6-1c-0.4,0.2-1,0.2-1.4,0.4c-2.1,1-4.3,1.5-6.8,1c-2.5-0.6-3.5-2.7-1.8-4
		c1.2-1,2.1-1.7,2.9-2.9c1.2-1.5,2-2.9,1.6-4.6c-0.2-1.3-1.2-1.7-2.9-1c-1,0.4-1.9,0.8-2.9,1.3c-1.4,0.6-2.7,0.2-2.7-1
		c0-0.6,0.4-1.3,1.2-1.7c1.8-1,2-2.1,1.4-3.6c-0.8-1.7-1.6-3.5,0.2-5.4c0.2-0.2-0.2-1-0.6-1.3c-0.4-0.2-1.2-0.4-1.8-0.4
		c-0.8,0-1.4,0.2-2.1,0.4c-1.2,0.2-2,0-2.3-0.8c-0.2-0.8-0.4-1.5-0.6-2.5c-0.8-1.9-2.1-3.6-5.3-4.6c-1-0.4-1.8-0.2-2.3,0.4
		c-0.6,0.8-0.8,1.5-1.2,2.3c-1.2,2.3-2.5,4.6-7,5.2c-2,0.2-2.3,0.8-2.1,1.9c0.2,1,0.4,1.7,0.8,2.7c0.4,1.2,0,2.1-1.6,2.7
		c-0.6,0.2-1,0.6-1.2,1c-0.8,1.3-1.6,2.5-2.1,3.8c-0.4,1-0.8,1.9-2.1,2.5c-2.1,1-4.1,1.7-6.4,2.3c-1.4,0.4-1.6,0.8-1.4,1.5
		c0.2,2.3,2,4,4.1,5.8c1.6,1.3,1.6,1.5-0.4,2.5c-0.2,0.2-0.4,0.2-0.8,0.4c-2,0.4-3.7,1-5.7,1.3c-1,0.2-1.8,0.6-1.6,1.2
		c0,1,0.2,1.9,0.8,2.9c0.8,1.2,2,2.3,2.9,3.5c0.8,0.8,1.4,1.5,0.8,2.7c-1.2,2.1-3.5,4-5.7,5.8c-0.2,0.2-1.2,0.2-1.4,0.2
		c-2.5-1.5-5.1-3.1-6-5.2c-1.2-2.5-2.3-5-2.5-7.5c0-1.2-0.4-2.3-1-3.5c-0.2-0.4-0.8-0.6-1.4-0.8c-0.4,0.4-1,0.6-1,1
		c-0.6,1.5-1,3.1-1.6,4.4c-0.8,1.9-1.6,3.6-2.3,5.6c-0.2,0.4-1,0.8-1.2,0.8c-0.6,0-1.4-0.4-1.8-0.8c-0.6-1-1-1.9-1.6-2.9
		c-0.4-0.8-0.4-1.5-2.1-1.9c-0.6,1.5-1,2.9-1.6,4.2c-0.2,0.6-0.6,1.3-1.2,1.9c-1,1-1.9,1-3.1,0.2c-1-0.6-1.6-1.2-2.3-1.9
		c-1.4-1.2-2.3-2.5-3.9-3.6c-1.4-1.2-3.1-1.5-4.7,0c-0.2,0.2-0.4,0.2-0.6,0.4c-1.4,1-2.7,0.8-3.3-0.4c-0.6-1.2-1.2-2.5-1.6-3.6
		c-0.8-1.9-1.2-4-2.3-5.8c-1.4-2.1-1.8-4-2.3-6.1c-0.4-1.5-0.8-3.1-1.4-4.6c-0.2-0.8-1-1.3-1.6-1.9c-0.2,0-0.4,0-0.6,0
		c-0.2,1-0.4,1.7-0.6,2.7c-0.4,1.7-0.6,3.3-1.2,5c-0.6,2.1-1.2,4.2-2,6.3c-0.6,2.1-1.4,4-1.9,6.1c-0.6,2.3-1,4.4-1.2,6.7
		c-0.2,1.3-0.6,2.5-2.3,3.3c-1,0.6-2.3,0.4-2.9-0.2c-0.6-0.6-1-1.3-1.2-2.1c-0.8-2.7-1.6-5.4-2.3-7.9c-0.2-0.8-0.2-1.7-1.8-2.5
		c-0.2,0.4-0.2,0.6-0.4,1c-0.2,2.5-0.4,5.2-0.8,7.7c-0.2,1.5-0.8,3.1-1.4,4.4c-0.4,1-1.2,1.7-1.6,2.5c-0.6,1.9-1,3.8-1.6,5.8
		c-0.4,1.2-1.4,2.3-3.5,2.9c0-0.4-0.2-0.6-0.2-1c-0.2-1.7-1.4-3.1-3.9-4c-1-0.4-1-0.6-0.6-1.2c1.6-2.3,0.6-5.2-2.3-6.5
		c-1.8-1-3.3-0.8-4.3,0.4c-0.6,0.8-1,1.5-1.4,2.5c-0.6,1.2-0.8,2.3-1.6,3.5c-0.4,0.6-1.4,1.2-2.3,1.3c-1.2,0.2-2.1-0.4-2.7-1
		c-0.6-0.8-1.2-1.5-1.4-2.5c-0.6-1.7-1-3.3-1.6-5c-0.2-0.6-1-1.3-1.4-1.9c-1.6,0.6-2,1.2-2.1,2.1c-0.2,1,0,1.9-0.2,2.9
		c-0.4,1.9-0.6,3.8-1.4,5.6c-0.6,1.3-2,2.7-4.1,3.3c-1.2,0.4-2.1,0.2-2.9-0.4c-0.8-0.4-1-1-0.8-1.7c1-2.5,1.6-4.8,1.2-7.5
		c-0.2-1-0.8-2.1-2-2.7c-1-0.4-1-1-0.6-1.5c0.4-0.6,0.8-1.2,1-1.7c0.4-1,0.8-1.9,1-2.9c0.2-0.6-0.4-1.2-1.4-1.3
		c-1.4-0.4-1.8-1-1.8-1.9c0-1.3,0-2.5,0-3.8c-0.2-1.3-2.1-2.5-4.1-2.5c-1.6,0-2.5,0.8-2.9,2.3v0.2c-0.2,2.7-1.2,5.4-2.5,8.1
		c-0.6,1.2-1.2,2.3-2,3.5c-0.6,0.8-1.6,0.8-2.3,0.2c-0.2-0.2-0.6-0.4-0.6-0.8c-0.6-1.3-1.2-2.7-1.6-4c-0.4-1.7-1.2-3.1-2.7-4.6
		c-1.8-1.5-2.7-3.3-2.5-5.2c0.2-1.2,0-2.5-0.2-3.6c-0.2-1-0.4-1.9-1.8-2.7c-0.2,0.2-0.2,0.4-0.2,0.4c-1,3.1-2,6.3-2.9,9.4
		c-0.6,2.1-1.4,4.4-2,6.5c-0.6,1.9-1,3.8-1.4,5.6c-0.4,1.3-0.6,2.9-1.8,4c-0.6,0.6-1.2,1.2-2.1,0.8c-0.8-0.2-1.6-0.8-1.6-1.2
		c-0.6-1.7-1-3.5-1.6-5.2c-0.4-1.2-1.2-2.5-1.8-3.6c-0.2-0.4-1-0.8-1.6-1c-0.4,0.4-1,1-1,1.3c-0.2,2.1,0,4.2-0.2,6.3
		c-0.2,1.5-0.6,3.1-1,4.8c0,0.2-0.6,0.8-1,0.8c-0.6,0-1.2-0.4-1.4-0.6c-0.6-0.8-1-1.7-1.6-2.5c-0.6-1-0.8-1.9-2.5-2.5
		c-0.2,0.2-0.2,0.4-0.2,0.6c-0.8,4-1.4,8.1-2.1,12.3c-0.6,3.3-1.6,6.5-3.1,9.8c-0.6,1.3-2,2.5-3.9,3.3c-0.4,0.2-1.2,0.2-1.8,0.2
		c0-0.4-0.4-0.8-0.2-1.2c0.2-0.6,0.8-1,1-1.5c1-1.3,2.1-2.9,2.9-4.2c0.6-1.2,0-2.3-1.8-2.9c-0.8-0.4-1.6-0.8-2.1-1.2
		c-3.1-1.7-5.1-3.8-6.6-6.1c-0.6-0.8-1.4-1.3-2.7-1.3c-1.4,0-2.3,0.4-2.7,1.2c-0.6,1.2-1,2.5-1.4,3.8c-0.6,1.7-1,3.3-1.6,5
		c-0.4,1.2-2,1.9-3.3,1.9c-2,0-2.7,0.6-2.1,1.7c0.4,0.8,1,1.3,1.6,1.9c0.6,0.8,0.6,1.3-0.4,1.7s-1.8,0.4-2.7-0.2
		c-2.5-1.2-3.7-3.1-4.5-4.8c-1-1.7-1.6-3.6-2.3-5.6c-0.4-1-1-1.7-1.6-2.7c-0.2,0-0.2,0-0.4,0c-0.2,0.2-0.6,0.6-0.8,0.8
		c-0.4,1.3-0.4,2.7-0.8,3.8c-0.4,1.2-0.8,2.3-1.4,3.3c-0.4,1-1.2,1.9-1.6,2.9c-1,2.7-2,5.4-3.1,7.9c-1,1.9-3.3,3.3-6.6,3.3
		c-1.6,0-2.7-0.6-2.3-1.7c0.2-0.4,0.4-1,0.8-1.3c2-1.9,1.6-4.2-0.6-5.9c-2.7-2.1-4.7-4.4-5.7-7.1c-0.2-0.8-0.8-1-1.8-1
		c-0.8,0-1.6,0.2-2.3,0.4c-1.4,0.4-2.5,1-3.9,1.3c-1.2,0.4-1.4,0.2-1.8-0.6c-1-2.5-2.1-4.8-3.3-7.3c-1.4-2.7-2.7-5.2-2.5-7.9
		c0-0.8,0-1.7-0.2-2.5c-0.2-0.6-0.6-1.2-1-1.7c-0.6-0.8-1.6-0.8-2.1,0c-0.6,1-1,1.9-1.4,2.9c-0.8,2.9-1.4,5.8-2.1,8.6
		c-0.4,1.5-2.1,2.1-4.5,1.7c-2.3-0.4-2.9-1.3-1.6-2.7c0.2-0.2,0.6-0.4,0.8-0.6c1.8-1.2,2-2.5,0.6-3.8c-0.4-0.4-0.6-0.8-1-1.2
		c-1.6-1.7-3.1-3.5-3.1-5.6c0-1.7-1-3.1-2.1-4.6c-1.4-1.5-2.1-3.1-0.8-4.8c0.2-0.2,0.2-0.8,0.2-1c-0.4-1.2-1-2.3-1.6-3.5
		c-1.2-1.9-2.7-3.8-2.5-5.9c0-0.2,0-0.4-0.2-0.6c-0.4-0.2-0.8-0.6-1.2-0.8c-0.4,0-1,0.2-1.2,0.6c-0.2,0.4-0.4,0.8-0.4,1.2
		c0.8,2.9-0.6,5.6-2,8.2c-1,2.1-1.8,4.2-1.4,6.3c0,0.4,0,0.8-0.2,1.2c-0.2,0.2-0.6,0.6-0.8,0.6c-0.4,0-0.8-0.2-1-0.4
		c-0.6-0.8-1.2-1.5-2-2.5c-0.4,0.2-0.8,0.4-1,0.6c-0.4,0.8-0.8,1.5-0.8,2.3c-0.4,2.9-0.6,5.9-2,8.6c-0.2,0.2,0,0.4-0.2,0.6
		c-0.4,1.2-0.8,2.5-1.2,3.6c-0.8,2.1-1.8,4.4-2.3,6.5c-0.6,2.3-1,4.6-1.6,6.9c-0.6,2.3-1.4,4.4-3.5,6.3c-0.2,0.2-0.2,0.8,0,1.2
		c0.2,0.8,1,1.5,0.8,2.3c0,1.7-0.6,2.5-3.1,3.3c-1,0.2-1.8,0.8-2.5,1.2C237.7,743.6,238.1,744.4,240.3,744.6z"/>
	<path class="st4" d="M146.8,753.6c33.2,1.7,66.3-1.7,99.3-5.8h0.2c1.6-0.8,1.8-1.3,0.6-2.3c-0.8-0.6-2-1.2-2.9-1.7
		c-1.4-0.8-2.7-1.3-4.1-2.1c-0.8-0.4-1-1,0.2-1.3c0.4-0.2,0.8-0.2,1.2-0.4c1-0.4,2.1-0.8,2.9-1.2c1-0.4,1-1,0.2-1.5
		c-0.8-0.6-1.4-1-2.1-1.5c-1.4-0.8-2.9-1.5-4.3-2.5c-1.6-1-1.4-1.3,0.2-2.3c2-1.3,3.9-2.5,5.7-3.8c2-1.5,3.3-3.3,3.3-5.4
		c0-0.8-0.2-1.3-1.6-1.5c-1.6-0.2-3.1-0.6-4.9-0.8c-3.5-0.4-5.5-2.9-4.3-4.6c0.8-1.3,2.3-2.1,4.1-2.9c2.5-1,4.5-2.5,5.5-4.2
		c0.4-1,0.8-1.9,0-3.1c-0.4,0-0.6,0-0.8,0.2c-3.3,0.6-4.7,0-4.3-2.3c0-0.6,0.2-1.2,0.2-1.7c0-0.4-0.4-0.6-0.6-1
		c-0.4,0.2-1,0.2-1.4,0.4c-2.1,1-4.3,1.5-6.8,1c-2.5-0.6-3.5-2.7-1.8-4c1.2-1,2.1-1.7,2.9-2.9c1.2-1.3,2-2.9,1.6-4.6
		c-0.2-1.3-1.2-1.7-2.9-1c-1,0.4-2,0.8-2.9,1.3c-1.4,0.6-2.7,0.2-2.7-1c0-0.6,0.4-1.3,1.2-1.7c1.8-1,2-2.1,1.4-3.5
		c-0.8-1.7-1.6-3.5,0.2-5.4c0.2-0.2-0.2-1-0.6-1.3c-0.4-0.2-1.2-0.4-1.8-0.4c-0.8,0-1.4,0.2-2.1,0.4c-1.2,0.2-2,0-2.3-0.8
		c-0.2-0.8-0.4-1.5-0.6-2.5c-0.8-1.9-2.1-3.6-5.3-4.6c-1-0.4-1.8-0.2-2.3,0.4c-0.6,0.8-0.8,1.5-1.2,2.3c-1.2,2.3-2.5,4.6-7,5.2
		c-2,0.2-2.3,0.8-2.1,1.9c0.2,1,0.4,1.7,0.8,2.7c0.4,1.2,0,2.1-1.6,2.7c-0.6,0.2-1,0.6-1.2,1c-0.8,1.3-1.4,2.5-2.1,3.8
		c-0.4,1-0.8,1.9-2.1,2.5c-2,1-4.1,1.7-6.4,2.3c-1.4,0.4-1.6,0.8-1.4,1.5c0.2,2.3,2,4,4.1,5.8c1.6,1.3,1.6,1.5-0.4,2.5
		c-0.2,0.2-0.4,0.2-0.8,0.4c-2,0.4-3.7,1-5.7,1.3c-1,0.2-1.8,0.6-1.6,1.2c0.2,1,0.2,1.9,0.8,2.9c0.8,1.2,2,2.3,2.9,3.5
		c0.8,0.8,1.4,1.5,0.8,2.7c-1.2,2.1-3.5,4-5.7,5.8c-0.2,0.2-1.2,0.2-1.4,0.2c-2.5-1.5-5.1-3.1-6-5.2c-1.2-2.5-2.3-5-2.5-7.5
		c0-1.2-0.6-2.3-1-3.5c-0.2-0.4-0.8-0.6-1.4-0.8c-0.4,0.4-1,0.6-1,1c-0.6,1.5-1,3.1-1.6,4.4c-0.8,1.9-1.6,3.6-2.3,5.6
		c-0.2,0.4-1,0.8-1.2,0.8c-0.6,0-1.4-0.4-1.8-0.8c-0.6-1-1-1.9-1.6-2.9c-0.4-0.8-0.4-1.5-2.1-1.9c-0.6,1.5-1,2.9-1.6,4.2
		c-0.2,0.6-0.6,1.3-1.2,1.9c-1,1-2,1-3.1,0.2c-1-0.6-1.6-1.2-2.3-1.9c-1.4-1.2-2.3-2.5-3.9-3.6c-1.4-1.2-3.1-1.5-4.7,0
		c-0.2,0.2-0.4,0.2-0.6,0.4c-1.4,1-2.7,0.8-3.3-0.4s-1.2-2.5-1.6-3.6c-0.8-1.9-1.2-4-2.3-5.8c-1.4-1.9-1.8-4-2.3-6.1
		c-0.4-1.5-0.8-3.1-1.4-4.6c-0.2-0.8-1-1.3-1.6-1.9c-0.2,0-0.4,0-0.6,0c-0.2,1-0.4,1.7-0.6,2.7c-0.4,1.7-0.6,3.3-1.2,5
		c-0.6,2.1-1.2,4.2-2,6.3c-0.6,2.1-1.4,4-1.8,6.1c-0.6,2.3-1,4.4-1.2,6.7c-0.2,1.3-0.6,2.5-2.3,3.3c-1,0.6-2.3,0.4-2.9-0.2
		c-0.6-0.6-1-1.3-1.2-2.1c-0.8-2.7-1.6-5.4-2.3-7.9c-0.2-0.8-0.4-1.7-1.8-2.5c-0.2,0.4-0.2,0.6-0.4,1c-0.2,2.5-0.4,5.2-0.8,7.7
		c-0.2,1.5-0.8,3.1-1.4,4.4c-0.4,1-1.2,1.7-1.6,2.5c-0.6,1.9-1,3.8-1.6,5.8c-0.4,1.2-1.4,2.3-3.5,2.9c0-0.4-0.2-0.6-0.2-1
		c-0.2-1.7-1.4-3.1-3.9-4c-1-0.4-1-0.6-0.6-1.2c1.6-2.3,0.6-5.2-2.3-6.5c-1.8-1-3.3-0.8-4.3,0.4c-0.6,0.8-1,1.5-1.4,2.5
		c-0.6,1.2-0.8,2.3-1.6,3.5c-0.4,0.6-1.4,1.2-2.3,1.3c-1.2,0.2-2.1-0.4-2.7-1c-0.6-0.8-1.2-1.5-1.4-2.5c-0.6-1.7-1-3.3-1.6-5
		c-0.2-0.6-1-1.3-1.4-1.9c-1.6,0.6-2,1.2-2.1,2.1c-0.2,1,0,1.9-0.2,2.9c-0.4,1.9-0.6,3.6-1.4,5.6c-0.6,1.3-2,2.7-4.1,3.3
		c-1.2,0.4-2.1,0.2-2.9-0.4c-0.8-0.4-1-1-0.8-1.7c1-2.5,1.6-4.8,1.2-7.5c-0.2-1-0.8-2.1-2.1-2.7c-1-0.4-1-1-0.6-1.5
		c0.4-0.6,0.8-1.2,1-1.7c0.4-1,0.8-1.9,1-2.9c0.2-0.6-0.4-1.2-1.4-1.3c-1.4-0.4-1.8-1-1.8-1.9c0-1.3,0-2.5,0-3.8
		c-0.2-1.3-2.1-2.5-4.1-2.5c-1.6,0-2.5,0.8-2.9,2.3v0.2c-0.2,2.7-1.2,5.4-2.5,8.1c-0.6,1.2-1.2,2.3-2,3.5c-0.6,0.8-1.6,0.8-2.3,0.2
		c-0.2-0.2-0.6-0.4-0.6-0.8c-0.6-1.3-1.2-2.7-1.6-4c-0.4-1.7-1.2-3.1-2.7-4.6c-1.8-1.5-2.7-3.3-2.5-5.2c0.2-1.2,0-2.5-0.2-3.6
		c-0.2-1-0.4-1.9-1.8-2.7c-0.2,0.2-0.2,0.4-0.2,0.4c-1,3.1-2,6.3-2.9,9.4c-0.6,2.1-1.4,4.4-2,6.5c-0.6,1.9-1,3.8-1.4,5.6
		c-0.4,1.3-0.6,2.9-1.8,4c-0.6,0.6-1.2,1.2-2.1,0.8c-0.8-0.2-1.6-0.8-1.6-1.2c-0.6-1.7-1-3.5-1.6-5.2c-0.4-1.3-1.2-2.5-1.8-3.6
		c-0.2-0.4-1-0.8-1.6-1c-0.4,0.4-1,1-1,1.3c-0.2,2.1,0,4.2-0.2,6.3c-0.2,1.5-0.6,3.1-1,4.8c0,0.2-0.6,0.8-1,0.8
		c-0.6,0-1.2-0.4-1.4-0.6c-0.6-0.8-1.2-1.7-1.6-2.5c-0.6-1-0.8-1.9-2.5-2.5c-0.2,0.2-0.2,0.4-0.2,0.6c-0.8,4-1.4,8.1-2.1,12.3
		c-0.6,3.3-1.6,6.5-3.1,9.8c-0.6,1.3-2,2.5-3.9,3.3c-0.4,0.2-1.2,0.2-1.8,0.2c0-0.4-0.4-0.8-0.2-1.2c0.2-0.6,0.6-1,1-1.5
		c1-1.3,2.1-2.9,2.9-4.2c0.6-1.2,0-2.3-1.8-2.9c-0.8-0.4-1.6-0.8-2.1-1.2c-3.1-1.7-5.1-3.8-6.6-6.1c-0.6-0.8-1.4-1.3-2.7-1.3
		c-1.4,0-2.3,0.4-2.7,1.2c-0.6,1.2-1,2.5-1.4,3.8c-0.6,1.7-1,3.3-1.6,5c0,0.2-0.2,0.4-0.4,0.6v22.1H127
		C133,754.9,139.8,753.2,146.8,753.6z"/>
	<path class="st4" d="M467.7,732.5c1.2,0,2.1,0.6,2.1,1c0,0.2-0.2,0.2-0.2,0.4c8.2,0,16.2,0.2,24.4,0.4c23.2,0.6,46.4,1.7,69.6,3.3
		c42.9,0,83.9,0,84.1,0.2h34.9c0.2,0,0.6,0,0.8,0s0.6,0,0.8,0h8.8c0.6-0.2,10.9-0.2,13.5,0c0.8,0,1.4,0,2.1,0h118.2
		c-0.2-0.2-0.6-0.6-0.8-0.8c-0.6-0.6-1-1-2.7-1.3c-0.8-0.2-1-0.4-0.2-0.6c0.4-0.2,0.8-0.2,1.2-0.4c7.6-2.3,6.8-2.3,2.3-5.9
		c-1.8-1.3-5.3-5.2-7.2-6.1c-4.5-2.3-15.6-4.2-21.3-5.2c-3.9-0.6-8.2-0.2-10.9-3.3c-3.7,2.5-7.6-1-11.7-1.3
		c-6-0.6-14.2,3.6-18.7-1.3c-1.2-1.3-2.3-2.7-2.5-4c0-0.6-0.6-1.2-1-1.7c-0.2-0.2-0.8-0.4-1.4-0.4c-0.4,0.2-1,0.4-1,0.6
		c-0.6,0.8-1,1.5-1.6,2.3c-0.8,1-1.6,1.9-2.3,2.9c-0.2,0.2-1,0.4-1.2,0.4c-0.6,0-1.4-0.2-1.6-0.4c-0.6-0.6-1-1-1.6-1.5
		c-0.4-0.4-0.4-0.8-2.1-1.2c-0.6,0.8-1,1.5-1.6,2.3c-0.2,0.4-0.6,0.8-1.2,1c-1,0.6-2,0.6-3.1,0.2c-1-0.2-1.6-0.6-2.3-1
		c-1.4-0.6-2.3-1.3-3.9-1.9c-1.4-0.6-3.1-0.8-4.7,0c-0.2,0-0.4,0.2-0.6,0.2c-1.4,0.4-2.7,0.4-3.3-0.2c-0.6-0.6-1.2-1.3-1.6-1.9
		c-0.8-1-1.2-2.1-2.3-3.1c-1.4-1.2-1.8-2.1-2.3-3.3c-0.4-0.8-0.8-1.7-1.4-2.5c-0.2-0.4-1-0.8-1.6-1c-0.2,0-0.4,0-0.6,0
		c-0.2,0.4-0.4,1-0.6,1.3c-0.4,1-0.6,1.7-1.2,2.7c-0.6,1.2-1.2,2.3-2,3.3c-0.6,1.2-1.4,2.1-1.8,3.3c-0.6,1.2-1,2.3-1.2,3.6
		c-0.2,0.8-0.6,1.3-2.3,1.7c-1,0.2-2.3,0.2-2.9-0.2c-0.6-0.4-1-0.8-1.2-1.2c-0.8-1.3-1.6-2.9-2.3-4.2c-0.2-0.4-0.4-1-1.8-1.3
		c-0.2,0.2-0.2,0.4-0.4,0.4c-0.2,1.3-0.4,2.7-0.8,4c-0.2,0.8-0.8,1.5-1.4,2.3c-0.4,0.4-1.2,1-1.6,1.3c-0.6,1-1,2.1-1.6,3.1
		c-0.4,0.6-1.4,1.2-3.5,1.5c0-0.2-0.2-0.4-0.2-0.6c-0.2-1-1.4-1.7-3.9-2.1c-1-0.2-1-0.4-0.6-0.6c1.6-1.3,0.6-2.7-2.3-3.5
		c-1.8-0.4-3.3-0.4-4.3,0.2c-0.6,0.4-1,0.8-1.4,1.3c-0.6,0.6-0.8,1.2-1.6,1.7c-0.4,0.4-1.4,0.6-2.3,0.8c-1.2,0.2-2.1-0.2-2.7-0.6
		c-0.6-0.4-1.2-0.8-1.4-1.3c-0.6-1-1-1.7-1.6-2.7c-0.2-0.4-1-0.6-1.4-1c-1.6,0.2-2,0.6-2.1,1.2c-0.2,0.6,0,1-0.2,1.5
		c-0.4,1-0.6,1.9-1.4,2.9c-0.6,0.8-2,1.3-4.1,1.7c-1.2,0.2-2.1,0-2.9-0.2c-0.8-0.2-1-0.6-0.8-1c1-1.3,1.6-2.7,1.2-3.8
		c-0.2-0.6-0.8-1.2-2-1.5c-1-0.2-1-0.6-0.6-0.8c0.4-0.4,0.8-0.6,1-1c0.4-0.6,0.8-1,1-1.5c0.2-0.4-0.4-0.6-1.4-0.8
		c-1.4-0.2-1.8-0.6-1.8-1c0-0.6,0-1.3,0-1.9c-0.2-0.8-2.1-1.3-4.1-1.3c-1.6,0-2.5,0.4-2.9,1.2c-0.2,1.5-1.2,2.9-2.5,4.2
		c-0.6,0.6-1.2,1.2-2,1.7c-0.6,0.4-1.6,0.4-2.3,0c-0.2-0.2-0.6-0.2-0.6-0.4c-0.6-0.8-1.2-1.3-1.6-2.1c-0.4-1-1.2-1.7-2.7-2.3
		c-1.8-0.8-2.7-1.7-2.5-2.7c0.2-0.6,0-1.3-0.2-1.9c-0.2-0.6-0.4-1-1.8-1.3c-0.2,0.2-0.2,0.2-0.2,0.2c-1,1.7-2,3.3-2.9,5
		c-0.6,1.2-1.4,2.3-2,3.5c-0.6,1-1,1.9-1.4,3.1c-0.4,0.8-0.6,1.5-1.8,2.1c-0.6,0.2-1.2,0.6-2.1,0.4c-0.8-0.2-1.6-0.4-1.6-0.6
		c-0.6-1-1-1.9-1.6-2.7c-0.4-0.6-1.2-1.3-1.8-1.9c-0.2-0.2-1-0.4-1.6-0.6c-0.4,0.2-1,0.6-1,0.8c-0.2,1.2,0,2.3-0.2,3.3
		c-0.2,0.8-0.6,1.7-1,2.5c0,0.2-0.6,0.4-1,0.4c-0.6,0-1.2-0.2-1.4-0.4c-0.6-0.4-1-1-1.6-1.3c-0.6-0.6-0.8-1.2-2.5-1.3
		c-0.2,0.2-0.2,0.2-0.2,0.4c-0.8,2.1-1.4,4.2-2.1,6.5c-0.6,1.7-1.6,3.5-3.1,5.2c-0.6,0.8-2,1.3-3.9,1.7c-0.4,0-1.2,0-1.8,0.2
		c0-0.2-0.4-0.4-0.2-0.6c0.2-0.2,0.6-0.6,1-0.8c1-0.8,2.1-1.5,2.9-2.3c0.6-0.6,0-1.2-1.8-1.5c-0.8-0.2-1.6-0.4-2.1-0.6
		c-2.9-1-5.1-1.9-6.6-3.3c-0.6-0.4-1.4-0.8-2.7-0.8c-1.4,0-2.3,0.2-2.7,0.6c-0.6,0.6-1,1.3-1.4,1.9c-0.6,1-1,1.7-1.6,2.7
		c-0.4,0.6-2,1-3.3,1c-2,0-2.7,0.4-2.1,1c0.4,0.4,1,0.8,1.6,1c0.6,0.4,0.4,0.8-0.4,1c-1,0.2-1.8,0.2-2.7,0c-2.5-0.6-3.7-1.5-4.5-2.5
		c-1-1-1.6-1.9-2.3-2.9c-0.4-0.4-1-1-1.6-1.3c-0.2,0-0.2,0-0.4,0c-0.2,0.2-0.6,0.4-0.8,0.4c-0.4,0.8-0.4,1.3-0.8,2.1
		c-0.4,0.6-0.8,1.2-1.4,1.7c-0.4,0.6-1.2,1-1.6,1.5c-1,1.3-2,2.9-3.1,4.2c-1,1-3.3,1.7-6.6,1.7c-1.6,0-2.7-0.4-2.3-1
		c0.2-0.2,0.4-0.6,0.8-0.8c2-1,1.6-2.3-0.6-3.1c-2.7-1.2-4.7-2.3-5.7-3.8c-0.2-0.4-0.8-0.6-1.8-0.6c-0.8,0-1.6,0-2.3,0.2
		c-1.4,0.2-2.5,0.6-3.9,0.8c-1.2,0.2-1.4,0-1.8-0.4c-1-1.3-2.1-2.5-3.3-3.8c-1.4-1.3-2.7-2.7-2.5-4.2c0-0.4,0-1-0.2-1.3
		c-0.2-0.4-0.6-0.6-1-1c-0.6-0.4-1.6-0.4-2.1,0c-0.6,0.6-1,1-1.4,1.5c-0.8,1.5-1.4,3.1-2.1,4.6c-0.4,0.8-2.1,1.2-4.5,1
		c-2.3-0.2-2.9-0.8-1.6-1.3c0.2-0.2,0.6-0.2,0.8-0.4c1.8-0.6,2-1.3,0.6-2.1c-0.4-0.2-0.6-0.4-1-0.6c-1.6-1-3.1-1.9-3.1-2.9
		s-1-1.7-2.1-2.3c-1.4-0.8-2.1-1.7-0.8-2.5c0.2-0.2,0.2-0.4,0.2-0.6c-0.4-0.6-1-1.2-1.6-1.9c-1.2-1-2.7-2.1-2.5-3.3
		c0-0.2,0-0.2-0.2-0.4c-0.4-0.2-0.8-0.4-1.2-0.4c-0.4,0-1,0.2-1.2,0.2c-0.2,0.2-0.4,0.4-0.4,0.6c0.8,1.5-0.6,3.1-2,4.4
		c-1,1.2-1.8,2.1-1.4,3.5c0,0.2,0,0.4-0.2,0.6c-0.2,0.2-0.6,0.2-0.8,0.4c-0.4,0-0.8-0.2-1-0.2c-0.6-0.4-1.2-0.8-2-1.3
		c-0.4,0.2-0.8,0.2-1,0.4c-0.4,0.4-0.8,0.8-0.8,1.2c-0.4,1.5-0.6,3.1-2,4.6c-0.2,0.2,0,0.2-0.2,0.4c-0.4,0.6-0.8,1.3-1.2,1.9
		c-0.8,1.2-1.8,2.3-2.3,3.5c-0.6,1.2-1,2.5-1.6,3.6c-0.6,1.2-1.4,2.3-3.5,3.5c-0.2,0.2-0.2,0.4,0,0.6c0.2,0.4,1,0.8,0.8,1.2
		c0,1-0.6,1.3-3.1,1.7c-1,0.2-1.8,0.4-2.5,0.6C465.2,731.9,465.6,732.5,467.7,732.5z"/>
	<path class="st5" d="M494,734.2c62.4,1.5,124.5,7.9,186.9,10.4c6.2,0.2,12.7,0.4,18.9,0.4c3.1-3.6,5.7-7.3,6-10
		c1.4-8.1-4.7-7.5-12.7-8.6c-7.8-1.2-16.4-3.8-24.2-3.1c-12.3,1.2-21.7,5.8-34.7,5c-13.3-0.8-25.6-4.8-39-5
		c-17.8-0.2-34.7,2.1-52.5,0.2c-15.4-1.5-25.4-4.6-40.8-1.5c-11.5,2.3-17.9,4.8-29.5,4.2c-5.7-0.2-11.1-0.2-16.8-0.4
		c-7.4-0.2-14.2-2.1-21.5-2.5c-9.8-0.8-18.3,2.7-27.7,3.3c-10.1,0.4-20.1-1.7-29.8-3.5c-4.5-1-8.8-1.7-13.3-1.9
		c-4.3-0.2-8.2,0.2-12.3-1.2c-4.7-1.5-8.8-8.2-13.7-8.1c-2.1,0-8,5.4-9.6,6.7c-5.1,5-6,13.2-5.7,21.3
		C379.3,735.5,436.7,732.9,494,734.2z"/>
	<path class="st5" d="M118.3,754.5v3.5h6.4v-3.8c3.9,0.2,7.4,0.4,10.7,0.6c3.5-1,7.4-1.3,11.3-1.2c0.4,0,0.8,0,1.2,0
		c0.2-0.4,0.6-0.6,0.8-1c0.6-1-0.2-2.3-0.4-3.1c0.6-0.8,1.6-1.7,1.4-2.3c-0.8-1.9-2-3.6-2.9-5.4c-0.6-0.8-2-1.9-1.6-2.5
		c1.4-2.7-0.6-4.8-2-6.7c-1.2-1.9-3.3-3.3-1.4-5.6c0.2-0.2-0.2-0.8-0.4-1.2c-1-1.2-2.1-2.3-3.1-3.6c-0.8-1.2-3.1-2.1-0.6-3.8
		c0.4-0.4,0-2.3-0.8-2.9c-2.1-1.7-2.9-3.5-2.1-5.8c1-3.5-1.2-5.6-4.7-7.1c-0.2,0-0.2-0.2-0.4-0.4c2.1-2.1,0.6-3.8-0.6-5.8
		c-1.4-1.9-5.1-2.9-4.1-6.1c0.4-1-1.2-2.5-2.3-3.5c-0.6-0.4-2.1,0-3.1,0c0,1.7-2.9,2.7-1.6,4.8c0.2,0.2-0.2,0.8-0.6,1.2
		c-1.6,1.5-3.5,2.9-4.9,4.6c-1.2,1.5-2.1,3.5,0.2,4.8c-1.6,1-3.1,1.7-4.1,2.7c-0.8,0.6-1.2,1.7-1.2,2.7c0.6,3.1,1,5.8-2.5,8.1
		c-0.6,0.4-1,2.1-0.6,2.5c2.5,1.9,0.2,3.1-1,4.4c-1.2,1.3-3.3,3.5-2.7,4.4c1.4,2.7-0.4,4-1.8,5.8c-0.6,0.6-1.4,1.2-1.4,1.7
		c-0.4,3.8-1.4,7.3-4.3,10.6c-0.6,0.6-1,1.5-0.8,2.3s1,1.5,1.8,2.5c-1.8,2.1-1.6,3.8,1.8,5c0.8,0.4,2,0,3.1,0
		C105.5,754.5,111.7,754.5,118.3,754.5z"/>
	<path class="st5" d="M146.8,753.6c16.6,0.8,33,0.4,49.5-0.8l-0.2-0.2c-0.6-0.8-1.9-1.9-1.6-2.5c1.4-2.7-0.6-4.8-2-6.7
		c-1.2-1.9-3.3-3.3-1.4-5.6c0.2-0.2-0.2-0.8-0.4-1.2c-1-1.2-2.1-2.3-3.1-3.6c-0.8-1.2-3.1-2.1-0.6-3.8c0.4-0.4,0-2.3-0.8-2.9
		c-2.1-1.7-2.9-3.5-2.1-5.8c1-3.5-1.2-5.6-4.7-7.1c-0.2,0-0.2-0.2-0.4-0.4c2.1-2.1,0.6-3.8-0.6-5.8c-1.4-1.9-5.1-2.9-4.1-6.1
		c0.4-1-1.2-2.5-2.3-3.5c-0.6-0.4-2.1,0-3.1,0c0,1.7-2.9,2.7-1.6,4.8c0.2,0.2-0.2,0.8-0.6,1.2c-1.6,1.5-3.5,2.9-4.9,4.6
		c-1.2,1.5-2.1,3.5,0.2,4.8c-1.6,1-3.1,1.7-4.1,2.7c-0.8,0.6-1.2,1.7-1.2,2.7c0.6,3.1,1,5.8-2.5,8.1c-0.6,0.4-1,2.1-0.6,2.5
		c2.5,1.9,0.2,3.1-1,4.4s-3.3,3.5-2.7,4.4c1.4,2.7-0.4,4-1.8,5.8c-0.6,0.6-1.4,1.2-1.4,1.7c-0.4,3.1-1,5.8-2.7,8.4
		C145.4,753.6,146,753.6,146.8,753.6z"/>
	<path class="st5" d="M229.9,749.7c-0.2-1.5-1.4-2.9-2.3-4.2c-1.2-1.9-3.3-3.3-1.4-5.6c0.2-0.2-0.2-0.8-0.4-1.2
		c-1-1.2-2.1-2.3-3.1-3.6c-0.8-1.2-3.1-2.1-0.6-3.8c0.4-0.4,0-2.3-0.8-2.9c-2.1-1.7-2.9-3.5-2.1-5.8c1-3.5-1.2-5.6-4.7-7.1
		c-0.2,0-0.2-0.2-0.4-0.4c2.1-2.1,0.6-3.8-0.6-5.8c-1.4-1.9-5.1-2.9-4.1-6.1c0.4-1-1.2-2.5-2.3-3.5c-0.6-0.4-2.1,0-3.1,0
		c0,1.7-2.9,2.7-1.6,4.8c0.2,0.2-0.2,0.8-0.6,1.2c-1.6,1.5-3.5,2.9-4.9,4.6c-1.2,1.5-2.1,3.5,0.2,4.8c-1.6,1-3.1,1.7-4.1,2.7
		c-0.8,0.6-1.2,1.7-1.2,2.7c0.6,3.1,1,5.8-2.5,8.1c-0.6,0.4-1,2.1-0.6,2.5c2.5,1.9,0.2,3.1-1,4.4c-1.2,1.3-3.3,3.5-2.7,4.4
		c1.4,2.7-0.4,4-1.8,5.8c-0.6,0.6-1.4,1.2-1.4,1.7c-0.2,2.3-0.8,4.4-1.6,6.5C196.9,753,213.3,751.5,229.9,749.7z"/>
	<path class="st5" d="M220.7,749.6c-0.4,0.4-0.6,0.8-0.8,1.2c18.1-1.9,36.5-4.2,54.6-6.3c-0.4-0.8-1-1.5-1.6-2.5
		c-0.6-0.8-2-1.9-1.6-2.5c1.4-2.7-0.6-4.8-2-6.7c-1.2-1.9-3.3-3.3-1.4-5.6c0.2-0.2-0.2-0.8-0.4-1.2c-1-1.2-2.1-2.3-3.1-3.6
		c-0.8-1.2-3.1-2.1-0.6-3.8c0.4-0.4,0-2.3-0.8-2.9c-2.1-1.7-2.9-3.5-2.1-5.8c1-3.5-1.2-5.6-4.7-7.1c-0.2,0-0.2-0.2-0.4-0.4
		c2.1-2.1,0.6-3.8-0.6-5.8c-1.4-1.9-5.1-2.9-4.1-6.1c0.4-1-1.2-2.5-2.3-3.5c-0.6-0.4-2.1,0-3.1,0c0,1.7-2.9,2.7-1.6,4.8
		c0.2,0.2-0.2,0.8-0.6,1.2c-1.6,1.5-3.5,2.9-4.9,4.6c-1.2,1.5-2.1,3.5,0.2,4.8c-1.6,1-3.1,1.7-4.1,2.7c-0.8,0.6-1.2,1.7-1.2,2.7
		c0.6,3.1,1,5.8-2.5,8.1c-0.6,0.4-1,2.1-0.6,2.5c2.5,1.9,0.2,3.1-1,4.4s-3.3,3.5-2.7,4.4c1.4,2.7-0.4,4-1.8,5.8
		c-0.6,0.6-1.4,1.2-1.4,1.7c-0.4,3.8-1.4,7.3-4.3,10.6c-0.6,0.6-1,1.5-0.8,2.3C219.2,748,220,748.6,220.7,749.6z"/>
	<path class="st5" d="M264.6,740.2c-1.8,2.1-1.6,3.8,1.8,5c0.2,0,0.2,0,0.4,0c15.6-1.9,31.2-3.6,46.6-4.8c1.8-0.2,3.5-0.2,5.3-0.4
		c0.6-0.8,1.6-1.5,1.4-2.1c-0.8-1.9-2-3.6-2.9-5.4c-0.6-0.8-1.9-1.9-1.6-2.5c1.4-2.7-0.6-4.8-2-6.7c-1.2-1.9-3.3-3.3-1.4-5.6
		c0.2-0.2-0.2-0.8-0.4-1.2c-1-1.2-2.1-2.3-3.1-3.6c-0.8-1.2-3.1-2.1-0.6-3.8c0.4-0.4,0-2.3-0.8-2.9c-2.1-1.7-2.9-3.5-2.1-5.8
		c1-3.5-1.2-5.6-4.7-7.1c-0.2,0-0.2-0.2-0.4-0.4c2.1-2.1,0.6-3.8-0.6-5.8c-1.4-1.9-5.1-2.9-4.1-6.1c0.4-1-1.2-2.5-2.3-3.5
		c-0.6-0.4-2.1,0-3.1,0c0,1.7-2.9,2.7-1.6,4.8c0.2,0.2-0.2,0.8-0.6,1.2c-1.6,1.5-3.5,2.9-4.9,4.6c-1.2,1.5-2.1,3.5,0.2,4.8
		c-1.6,1-3.1,1.7-4.1,2.7c-0.8,0.6-1.2,1.7-1.2,2.7c0.6,3.1,1,5.8-2.5,8.1c-0.6,0.4-1,2.1-0.6,2.5c2.5,1.9,0.2,3.1-1,4.4
		c-1.2,1.3-3.3,3.5-2.7,4.4c1.4,2.7-0.4,4-1.8,5.8c-0.4,0.6-1.4,1.2-1.4,1.7c-0.4,3.8-1.4,7.3-4.3,10.6c-0.6,0.6-1,1.5-0.8,2.3
		C263.1,738.6,264.1,739.4,264.6,740.2z"/>
	<path class="st5" d="M313.4,740.3c10.9-0.8,21.8-1.5,33-2.3c-0.4-0.8-1-1.3-1.6-2.1c-1.2-1.9-3.3-3.3-1.4-5.6
		c0.2-0.2-0.2-0.8-0.4-1.2c-1-1.2-2.1-2.3-3.1-3.6c-0.8-1.2-3.1-2.1-0.6-3.8c0.4-0.4,0-2.3-0.8-2.9c-2.1-1.7-2.7-3.5-2.1-5.8
		c1-3.5-1.2-5.6-4.7-7.1c-0.2,0-0.2-0.2-0.4-0.4c2.1-2.1,0.6-3.8-0.6-5.8c-1.4-1.9-5.1-2.9-4.1-6.1c0.4-1-1.2-2.5-2.3-3.5
		c-0.6-0.4-2.1,0-3.1,0c0,1.7-2.9,2.7-1.6,4.8c0.2,0.2-0.2,0.8-0.6,1.2c-1.6,1.5-3.5,2.9-4.9,4.6c-1.2,1.5-2.1,3.5,0.2,4.8
		c-1.6,1-3.1,1.7-4.1,2.7c-0.8,0.6-1.2,1.7-1.2,2.7c0.6,3.1,1,5.8-2.5,8.1c-0.6,0.4-1,2.1-0.6,2.5c2.5,1.9,0.2,3.1-1,4.4
		c-1.2,1.3-3.3,3.5-2.7,4.4c1.4,2.7-0.4,4-1.8,5.8c-0.6,0.6-1.4,1.2-1.4,1.7c-0.2,1.3-0.4,2.7-0.8,4
		C303.7,741.1,308.5,740.7,313.4,740.3z"/>
	<path class="st5" d="M339,738.4c10.7-0.8,21.3-1.3,32-1.9c0.4-0.4,0-2.3-0.8-2.7c-2.1-1.7-2.9-3.5-2.1-5.8c1-3.5-1.2-5.6-4.7-7.1
		c-0.2,0-0.2-0.2-0.4-0.4c2.1-2.1,0.6-3.8-0.6-5.8c-1.4-1.9-5.1-2.9-4.1-6.1c0.4-1-1.2-2.5-2.3-3.5c-0.6-0.4-2.1,0-3.1,0
		c0,1.7-2.9,2.7-1.6,4.8c0.2,0.2-0.2,0.8-0.6,1.2c-1.6,1.5-3.5,2.9-4.9,4.6c-1.2,1.5-2.1,3.5,0.2,4.8c-1.6,1-3.1,1.7-4.1,2.7
		c-0.8,0.6-1.2,1.7-1.2,2.7c0.6,3.1,1,5.8-2.5,8.1c-0.6,0.4-1,2.1-0.6,2.5C339,737.3,339.2,737.8,339,738.4z"/>
	<path class="st5" d="M369.8,736.7c9-0.6,17.8-1,26.7-1.3c0-0.2,0-0.4,0-0.6c1-3.5-1.2-5.6-4.7-7.1c-0.2,0-0.2-0.2-0.4-0.4
		c2.1-2.1,0.6-3.8-0.6-5.8c-1.4-1.9-5.1-2.9-4.1-6.1c0.4-1-1.2-2.5-2.3-3.5c-0.6-0.4-2.1,0-3.1,0c0,1.7-2.9,2.7-1.6,4.8
		c0.2,0.2-0.2,0.8-0.6,1.2c-1.6,1.5-3.5,2.9-4.9,4.6c-1.2,1.5-2.1,3.5,0.2,4.8c-1.6,1-3.1,1.7-4.1,2.7c-0.8,0.6-1.2,1.7-1.2,2.7
		C369.8,734,370,735.4,369.8,736.7z"/>
	<path class="st5" d="M427.7,734.2c-0.2-0.2-0.2-0.4-0.4-0.4c-2.1-1.7-2.9-3.5-2.1-5.8c1-3.5-1.2-5.6-4.7-7.1
		c-0.2,0-0.2-0.2-0.4-0.4c2.1-2.1,0.6-3.8-0.6-5.8c-1.4-1.9-5.1-2.9-4.1-6.1c0.4-1-1.2-2.5-2.3-3.5c-0.6-0.4-2.1,0-3.1,0
		c0,1.7-2.9,2.7-1.6,4.8c0.2,0.2-0.2,0.8-0.6,1.2c-1.6,1.5-3.5,2.9-4.9,4.6c-1.2,1.5-2.1,3.5,0.2,4.8c-1.6,1-3.1,1.7-4.1,2.7
		c-0.8,0.6-1.2,1.7-1.2,2.7c0.6,3.1,1,5.8-2.5,8.1c-0.4,0.2-0.6,0.8-0.6,1.3C405.9,735,416.8,734.6,427.7,734.2z"/>
	<path class="st5" d="M450,733.8c10.5,0,21.3,0,31.8,0.2l-0.2-0.2c-2.1-1.7-2.9-3.5-2.1-5.8c1-3.5-1.2-5.6-4.7-7.1
		c-0.2,0-0.2-0.2-0.4-0.4c2.1-2.1,0.6-3.8-0.6-5.8c-1.4-1.9-5.1-2.9-4.1-6.1c0.4-1-1.2-2.5-2.3-3.5c-0.6-0.4-2.1,0-3.1,0
		c0,1.7-2.9,2.7-1.6,4.8c0.2,0.2-0.2,0.8-0.6,1.2c-1.6,1.5-3.5,2.9-4.9,4.6c-1.2,1.5-2.1,3.5,0.2,4.8c-1.6,1-3.1,1.7-4.1,2.7
		c-0.8,0.6-1.2,1.7-1.2,2.7C452.9,728.8,453.3,731.7,450,733.8z"/>
	<path class="st5" d="M467.3,733.8c0-0.4,0-0.6,0.2-1c1-3.5-1.2-5.6-4.7-7.1c-0.2,0-0.2-0.2-0.4-0.4c2.1-2.1,0.6-3.8-0.6-5.8
		c-1.4-1.9-5.1-2.9-4.1-6.1c0.4-1-1.2-2.5-2.3-3.5c-0.6-0.4-2.1,0-3.1,0c0,1.7-2.9,2.7-1.6,4.8c0.2,0.2-0.2,0.8-0.6,1.2
		c-1.6,1.5-3.5,2.9-4.9,4.6c-1.2,1.5-2.1,3.5,0.2,4.8c-1.6,1-3.1,1.7-4.1,2.7c-0.8,0.6-1.2,1.7-1.2,2.7c0.2,1.2,0.4,2.1,0.4,3.3
		C449.6,733.8,458.5,733.8,467.3,733.8z"/>
	<path class="st5" d="M453.1,733.8c-2.1-1.7-2.9-3.5-2.1-5.8c1-3.5-1.2-5.6-4.7-7.1c-0.2,0-0.2-0.2-0.4-0.4c2.1-2.1,0.6-3.8-0.6-5.8
		c-1.4-1.9-5.1-2.9-4.1-6.1c0.4-1-1.2-2.5-2.3-3.5c-0.6-0.4-2.1,0-3.1,0c0,1.7-2.9,2.7-1.6,4.8c0.2,0.2-0.2,0.8-0.6,1.2
		c-1.6,1.5-3.5,2.9-4.9,4.6c-1.2,1.5-2.1,3.5,0.2,4.8c-1.6,1-3.1,1.7-4.1,2.7c-0.8,0.6-1.2,1.7-1.2,2.7c0.6,3.1,1,5.8-2.5,8.1
		c-0.2,0-0.2,0.2-0.4,0.4C431.6,734.2,442.4,734,453.1,733.8z"/>
	<path class="st5" d="M412.1,734.8c9-0.4,17.8-0.6,26.7-0.6c0-0.4,0-0.8,0.2-1.2c1-3.5-1.2-5.6-4.7-7.1c-0.2,0-0.2-0.2-0.4-0.4
		c2.1-2.1,0.6-3.8-0.6-5.8c-1.4-1.9-5.1-2.9-4.1-6.1c0.4-1-1.2-2.5-2.3-3.5c-0.6-0.4-2.1,0-3.1,0c0,1.7-2.9,2.7-1.6,4.8
		c0.2,0.2-0.2,0.8-0.6,1.2c-1.6,1.5-3.5,2.9-4.9,4.6c-1.2,1.5-2.1,3.5,0.2,4.8c-1.6,1-3.1,1.7-4.1,2.7c-0.8,0.6-1.2,1.7-1.2,2.7
		C412.1,732.1,412.3,733.4,412.1,734.8z"/>
	<path class="st5" d="M388.5,734.6c-0.8,0.4-1.4,0.8-2,1.2c6.4-0.4,12.7-0.6,19.1-0.8c-0.2,0-0.2-0.2-0.4-0.4
		c2.1-2.1,0.6-3.8-0.6-5.8c-1.4-1.9-5.1-2.9-4.1-6.1c0.4-1-1.2-2.5-2.3-3.5c-0.6-0.4-2.1,0-3.1,0c0,1.7-2.9,2.7-1.6,4.8
		c0.2,0.2-0.2,0.8-0.6,1.2c-1.6,1.5-3.5,2.9-4.9,4.6C387.1,731.1,386.2,733.1,388.5,734.6z"/>
	<path class="st5" d="M381.9,735.9c-0.4-2.1-2.3-3.5-4.7-4.4c-0.2,0-0.2-0.2-0.4-0.4c2.1-2.1,0.6-3.8-0.6-5.8
		c-1.4-1.9-5.1-2.9-4.1-6.1c0.4-1-1.2-2.5-2.3-3.5c-0.6-0.4-2.1,0-3.1,0c0,1.7-2.9,2.7-1.6,4.8c0.2,0.2-0.2,0.8-0.6,1.2
		c-1.6,1.5-3.5,2.9-4.9,4.6c-1.2,1.5-2.1,3.5,0.2,4.8c-1.6,1-3.1,1.7-4.1,2.7c-0.8,0.6-1.2,1.7-1.2,2.7c0,0.4,0.2,0.8,0.2,1.2
		C363.9,736.9,372.9,736.3,381.9,735.9z"/>
	<path class="st5" d="M327.6,739.4c10.5-0.8,21.3-1.5,31.8-2.1c0.2-0.2,0.4-0.4,0.6-0.6c0.4-0.4,0-2.3-0.8-2.9
		c-2.1-1.7-2.9-3.5-2.1-5.8c1-3.5-1.2-5.6-4.7-7.1c-0.2,0-0.2-0.2-0.4-0.4c2.1-2.1,0.6-3.8-0.6-5.8c-1.4-1.9-5.1-2.9-4.1-6.1
		c0.4-1-1.2-2.5-2.3-3.5c-0.6-0.4-2.1,0-3.1,0c0,1.7-2.9,2.7-1.6,4.8c0.2,0.2-0.2,0.8-0.6,1.2c-1.6,1.5-3.5,2.9-4.9,4.6
		c-1.2,1.5-2.1,3.5,0.2,4.8c-1.6,1-3.1,1.7-4.1,2.7c-0.8,0.6-1.2,1.7-1.2,2.7c0.6,3.1,1,5.8-2.5,8.1c-0.6,0.4-1,2.1-0.6,2.5
		C328.6,737.7,328.4,738.4,327.6,739.4z"/>
	<path class="st5" d="M405.9,735c0.6-3.3-1.6-5.2-4.7-6.5c-0.2,0-0.2-0.2-0.4-0.4c2.1-2.1,0.6-3.8-0.6-5.8c-1.4-1.9-5.1-2.9-4.1-6.1
		c0.4-1-1.2-2.5-2.3-3.5c-0.6-0.4-2.1,0-3.1,0c0,1.7-2.9,2.7-1.6,4.8c0.2,0.2-0.2,0.8-0.6,1.2c-1.6,1.5-3.5,2.9-4.9,4.6
		c-1.2,1.5-2.1,3.5,0.2,4.8c-1.6,1-3.1,1.7-4.1,2.7c-0.8,0.6-1.2,1.7-1.2,2.7c0.2,1,0.4,1.9,0.4,2.9
		C387.9,735.5,396.9,735.2,405.9,735z"/>
	<path class="st5" d="M462.1,733.8c10.5,0,21.3,0,31.8,0.4c0-0.2-0.2-0.2-0.4-0.4c-2.1-1.7-2.7-3.5-2.1-5.8c1-3.5-1.2-5.6-4.7-7.1
		c-0.2,0-0.2-0.2-0.4-0.4c2.1-2.1,0.6-3.8-0.6-5.8c-1.4-1.9-5.1-2.9-4.1-6.1c0.4-1-1.2-2.5-2.3-3.5c-0.6-0.4-2.1,0-3.1,0
		c0,1.7-2.9,2.7-1.6,4.8c0.2,0.2-0.2,0.8-0.6,1.2c-1.6,1.5-3.5,2.9-4.9,4.6c-1.2,1.5-2.1,3.5,0.2,4.8c-1.6,1-3.1,1.7-4.1,2.7
		c-0.8,0.6-1.2,1.7-1.2,2.7C464.8,728.8,465.2,731.7,462.1,733.8z"/>
	<path class="st5" d="M527.6,735.5c-0.2-0.6-0.4-1.3-0.8-1.5c-2.1-1.7-2.9-3.5-2.1-5.8c1-3.5-1.2-5.6-4.7-7.1
		c-0.2,0-0.2-0.2-0.4-0.4c2.1-2.1,0.6-3.8-0.6-5.8c-1.4-1.9-5.1-2.9-4.1-6.1c0.4-1-1.2-2.5-2.3-3.5c-0.6-0.4-2.1,0-3.1,0
		c0,1.7-2.9,2.7-1.6,4.8c0.2,0.2-0.2,0.8-0.6,1.2c-1.6,1.5-3.5,2.9-4.9,4.6c-1.2,1.5-2.1,3.5,0.2,4.8c-1.6,1-3.1,1.7-4.1,2.7
		c-0.8,0.6-1.2,1.7-1.2,2.7c0.6,3.1,1,5.8-2.5,8.1l-0.2,0.2C505.7,734.4,516.7,735,527.6,735.5z"/>
	<path class="st5" d="M530.7,735.5c9.2,0.4,18.5,1,27.7,1.5c-0.8-1.2-1.2-2.7-0.8-4.2c1-3.5-1.2-5.6-4.7-7.1c-0.2,0-0.2-0.2-0.4-0.4
		c2.1-2.1,0.6-3.8-0.6-5.8c-1.4-1.9-5.1-2.9-4.1-6.1c0.4-1-1.2-2.5-2.3-3.5c-0.6-0.4-2.1,0-3.1,0c0,1.7-2.9,2.7-1.6,4.8
		c0.2,0.2-0.2,0.8-0.6,1.2c-1.6,1.5-3.5,2.9-4.9,4.6c-1.2,1.5-2.1,3.5,0.2,4.8c-1.6,1-3.1,1.7-4.1,2.7c-0.8,0.6-1.2,1.7-1.2,2.7
		C530.9,732.5,531.1,734.2,530.7,735.5z"/>
	<path class="st5" d="M561.5,737.3c10.5,0.6,21.3,1.3,31.8,2.1c-0.8-0.8-1.4-1.5,0.4-2.7c0.4-0.4,0-2.3-0.8-2.9
		c-2.1-1.7-2.7-3.5-2.1-5.8c1-3.5-1.2-5.6-4.7-7.1c-0.2,0-0.2-0.2-0.4-0.4c2.1-2.1,0.6-3.8-0.6-5.8c-1.4-1.9-5.1-2.9-4.1-6.1
		c0.4-1-1.2-2.5-2.3-3.5c-0.6-0.4-2.1,0-3.1,0c0,1.7-2.9,2.7-1.6,4.8c0.2,0.2-0.2,0.8-0.6,1.2c-1.6,1.5-3.5,2.9-4.9,4.6
		c-1.2,1.5-2.1,3.5,0.2,4.8c-1.6,1-3.1,1.7-4.1,2.7c-0.8,0.6-1.2,1.7-1.2,2.7c0.6,3.1,1,5.8-2.5,8.1c-0.6,0.4-1,2.1-0.6,2.5
		C561.2,736.7,561.5,737.1,561.5,737.3z"/>
	<path class="st5" d="M596.3,739.6c10.1,0.8,20.1,1.3,30.2,1.9c-0.2-0.2-0.2-0.4-0.4-0.4c-2.1-1.7-2.7-3.5-2.1-5.8
		c1-3.5-1.2-5.6-4.7-7.1c-0.2,0-0.2-0.2-0.4-0.4c2.1-2.1,0.6-3.8-0.6-5.8c-1.4-1.9-5.1-2.9-4.1-6.1c0.4-1-1.2-2.5-2.3-3.5
		c-0.6-0.4-2.1,0-3.1,0c0,1.7-2.9,2.7-1.6,4.8c0.2,0.2-0.2,0.8-0.6,1.2c-1.6,1.5-3.5,2.9-4.9,4.6c-1.2,1.5-2.1,3.5,0.2,4.8
		c-1.6,1-3.1,1.7-4.1,2.7c-0.8,0.6-1.2,1.7-1.2,2.7C597.2,735.5,597.6,737.7,596.3,739.6z"/>
	<path class="st5" d="M625.5,741.5c12.7,0.8,25.2,1.5,37.8,2.1c-1-1.2-2-2.1-2.7-3.3s-3.1-2.1-0.6-3.8c0.4-0.2,0-2.3-0.8-2.9
		c-2.1-1.7-2.7-3.5-2.1-5.8c1-3.5-1.2-5.6-4.7-7.1c-0.2,0-0.2-0.2-0.4-0.4c2.1-2.1,0.6-3.8-0.6-5.8c-1.4-1.9-5.1-2.9-4.1-6.1
		c0.4-1-1.2-2.5-2.3-3.5c-0.6-0.4-2.1,0-3.1,0c0,1.7-2.9,2.7-1.6,4.8c0.2,0.2-0.2,0.8-0.6,1.2c-1.6,1.5-3.5,2.9-4.9,4.6
		c-1.2,1.5-2.1,3.5,0.2,4.8c-1.6,1-3.1,1.7-4.1,2.7c-0.8,0.6-1.2,1.7-1.2,2.7c0.6,3.1,1,5.8-2.5,8.1c-0.6,0.4-1,2.1-0.6,2.5
		c2.5,1.9,0.2,3.1-1,4.4C625.9,741.1,625.7,741.3,625.5,741.5z"/>
	<path class="st5" d="M661.2,743.6c6.6,0.4,13.1,0.6,19.7,1c4.1,0.2,8.4,0.2,12.5,0.4c-1-1-2.3-1.9-0.2-3.3c0.4-0.4,0-2.3-0.8-2.9
		c-2.1-1.7-2.9-3.5-2.1-5.8c1-3.5-1.2-5.6-4.7-7.1c-0.2,0-0.2-0.2-0.4-0.4c2.1-2.1,0.6-3.8-0.6-5.8c-1.4-1.9-5.1-2.9-4.1-6.1
		c0.4-1-1.2-2.5-2.3-3.5c-0.6-0.4-2.1,0-3.1,0c0,1.7-2.9,2.7-1.6,4.8c0.2,0.2-0.2,0.8-0.6,1.2c-1.6,1.5-3.5,2.9-4.9,4.6
		c-1.2,1.5-2.1,3.5,0.2,4.8c-1.6,1-3.1,1.7-4.1,2.7c-0.8,0.6-1.2,1.7-1.2,2.7c0.6,3.1,1,5.8-2.5,8.1c-0.6,0.4-1,2.1-0.6,2.5
		C661.4,742.3,661.4,743,661.2,743.6z"/>
	<path class="st5" d="M730.5,745.1c0-0.2-0.2-0.8-0.4-1c-1-1.2-2.1-2.3-3.1-3.6c-0.8-1.2-3.1-2.1-0.6-3.8c0.4-0.4,0-2.3-0.8-2.9
		c-2.1-1.7-2.7-3.5-2.1-5.8c1-3.5-1.2-5.6-4.7-7.1c-0.2,0-0.2-0.2-0.4-0.4c2.1-2.1,0.6-3.8-0.6-5.8c-1.4-1.9-5.1-2.9-4.1-6.1
		c0.4-1-1.2-2.5-2.3-3.5c-0.6-0.4-2.1,0-3.1,0c0,1.7-2.9,2.7-1.6,4.8c0.2,0.2-0.2,0.8-0.6,1.2c-1.6,1.5-3.5,2.9-4.9,4.6
		c-1.2,1.5-2.1,3.5,0.2,4.8c-1.6,1-3.1,1.7-4.1,2.7c-0.8,0.6-1.2,1.7-1.2,2.7c0.6,3.1,1,5.8-2.5,8.1c-0.6,0.4-1,2.1-0.6,2.5
		c2.5,1.9,0.2,3.1-1,4.4c-1,1.2-2.7,3.1-2.9,4C703.2,745.1,716.8,745.1,730.5,745.1z"/>
	<path class="st5" d="M726.2,745.1c11.3,0,22.4,0,33.7,0c-0.8-1-2.7-1.9-0.4-3.6c0.4-0.4,0-2.3-0.8-2.9c-2.1-1.7-2.7-3.5-2.1-5.8
		c1-3.5-1.2-5.6-4.7-7.1c-0.2,0-0.2-0.2-0.4-0.4c2.1-2.1,0.6-3.8-0.6-5.8c-1.4-1.9-5.1-2.9-4.1-6.1c0.4-1-1.2-2.5-2.3-3.5
		c-0.6-0.4-2.1,0-3.1,0c0,1.7-2.9,2.7-1.6,4.8c0.2,0.2-0.2,0.8-0.6,1.2c-1.6,1.5-3.5,2.9-4.9,4.6c-1.2,1.5-2.1,3.5,0.2,4.8
		c-1.6,1-3.1,1.7-4.1,2.7c-0.8,0.6-1.2,1.7-1.2,2.7c0.6,3.1,1,5.8-2.5,8.1c-0.6,0.4-1,2.1-0.6,2.5C728.5,743,727.4,744,726.2,745.1z
		"/>
	<path class="st5" d="M763.6,745.1c9.4,0.2,18.7,0.6,27.9,1.2c-1-1.3-1.2-2.7-0.8-4.4c1-3.5-1.2-5.6-4.7-7.1c-0.2,0-0.2-0.2-0.4-0.4
		c2.1-2.1,0.6-3.8-0.6-5.8c-1.4-1.9-5.1-2.9-4.1-6.1c0.4-1-1.2-2.5-2.3-3.5c-0.6-0.4-2.1,0-3.1,0c0,1.7-2.9,2.7-1.6,4.8
		c0.2,0.2-0.2,0.8-0.6,1.2c-1.6,1.5-3.5,2.9-4.9,4.6c-1.2,1.5-2.1,3.5,0.2,4.8c-1.6,1-3.1,1.7-4.1,2.7c-0.8,0.6-1.2,1.7-1.2,2.7
		C764,741.7,764.4,743.6,763.6,745.1z"/>
	<path class="st5" d="M52.4,758h57c0,0,0,0,0-0.2c-0.8-1.9-2-3.6-2.9-5.4c-0.6-0.8-2-1.9-1.6-2.5c1.4-2.7-0.6-4.8-2-6.7
		c-1.2-1.9-3.3-3.3-1.4-5.6c0.2-0.2-0.2-0.8-0.4-1.2c-1-1.2-2.1-2.3-3.1-3.6c-0.8-1.2-3.1-2.1-0.6-3.8c0.4-0.4,0-2.3-0.8-2.9
		c-2.1-1.7-2.7-3.5-2.1-5.8c1-3.5-1.2-5.6-4.7-7.1c-0.2,0-0.2-0.2-0.4-0.4c2.1-2.1,0.6-3.8-0.6-5.8c-1.4-1.9-5.1-2.9-4.1-6.1
		c0.4-1-1.2-2.5-2.3-3.5c-0.6-0.4-2.1,0-3.1,0c0,1.7-2.9,2.7-1.6,4.8c0.2,0.2-0.2,0.8-0.6,1.2c-1.6,1.5-3.5,2.9-4.9,4.6
		c-1.2,1.5-2.1,3.5,0.2,4.8c-1.6,1-3.1,1.7-4.1,2.7c-0.8,0.6-1.2,1.7-1.2,2.7c0.6,3.1,1,5.8-2.5,8.1c-0.6,0.4-1,2.1-0.6,2.5
		c2.5,1.9,0.2,3.1-1,4.4s-3.3,3.5-2.7,4.4c1.4,2.7-0.4,4-1.8,5.8c-0.6,0.6-1.4,1.2-1.4,1.7c-0.4,3.8-1.4,7.3-4.3,10.6
		c-0.6,0.6-1,1.5-0.8,2.3C52.4,757.8,52.4,758,52.4,758z"/>
	<path class="st4" d="M545.7,736.3c3.9,0.2,8,0.4,11.9,0.8c-0.4-0.4-0.6-1-1-1.3c-1.4-1.5-2.1-3.1-0.8-4.8c0.2-0.2,0.2-0.8,0.2-1
		c-0.4-1.2-1-2.3-1.6-3.5c-1.2-1.9-2.7-3.8-2.5-5.9c0-0.2,0-0.4-0.2-0.6c-0.4-0.2-0.8-0.6-1.2-0.8c-0.4,0-1,0.2-1.2,0.6
		c-0.2,0.4-0.4,0.8-0.4,1.2c1,2.9-0.6,5.6-2,8.2c-1,2.1-1.8,4.2-1.4,6.3C545.9,735.9,545.9,736.1,545.7,736.3z"/>
	<path class="st4" d="M680.7,744.6c8.8,0.4,17.8,0.4,26.7,0.6c0-0.4,0-0.8,0-1.2c-0.2-1-0.8-2.1-2.1-2.7c-1-0.4-1-1-0.6-1.5
		c0.4-0.6,0.8-1.2,1-1.7c0.4-1,0.8-1.9,1-2.9c0.2-0.6-0.4-1.2-1.4-1.3c-1.4-0.4-1.8-1-1.8-1.9c0-1.3,0-2.5,0-3.8
		c-0.2-1.3-2.1-2.5-4.1-2.5c-1.6,0-2.5,0.8-2.9,2.3v0.2c-0.2,2.7-1.2,5.4-2.3,8.1c-0.6,1.2-1.2,2.3-2,3.5c-0.6,0.8-1.6,0.8-2.3,0.2
		c-0.2-0.2-0.6-0.4-0.6-0.8c-0.6-1.3-1.2-2.7-1.6-4c-0.4-1.7-1.2-3.1-2.7-4.6c-1.8-1.5-2.7-3.3-2.5-5.2c0.2-1.2,0-2.5-0.2-3.6
		c-0.2-1-0.4-1.9-1.8-2.7c-0.2,0.2-0.2,0.4-0.2,0.4c-1,3.1-2,6.3-2.9,9.4c-0.6,2.1-1.4,4.4-2,6.5c-0.6,1.9-1,3.8-1.4,5.6
		c-0.2,1.2-0.4,2.3-1.2,3.5C675.3,744.4,678,744.4,680.7,744.6z"/>
	<path class="st4" d="M883.4,744.2c-1.6-0.2-3.1-0.6-4.9-0.8c-3.5-0.4-5.5-2.9-4.3-4.6c0.8-1.3,2.3-2.1,4.1-2.9
		c2.5-1,4.5-2.5,5.5-4.2c0.4-1,0.8-1.9,0-3.1c-0.4,0-0.6,0-0.8,0.2c-3.3,0.6-4.7,0-4.3-2.3c0-0.6,0.2-1.2,0.2-1.7
		c0-0.4-0.4-0.6-0.6-1c-0.4,0.2-1,0.2-1.4,0.4c-2.1,1-4.3,1.5-6.8,1c-2.5-0.6-3.5-2.5-1.8-4c1.2-1,2.1-1.7,2.9-2.9
		c1.2-1.3,2-2.9,1.6-4.6c-0.2-1.3-1.2-1.7-2.9-1c-1,0.4-2,0.8-2.9,1.3c-1.4,0.6-2.7,0.2-2.7-1c0-0.6,0.4-1.3,1.2-1.7
		c1.8-1,2-2.1,1.4-3.6c-0.8-1.7-1.6-3.5,0.2-5.4c0.2-0.2-0.2-1-0.6-1.3c-0.4-0.2-1.2-0.4-1.8-0.4c-0.8,0-1.4,0.2-2.1,0.4
		c-1.2,0.2-2,0-2.3-0.8c-0.2-0.8-0.4-1.5-0.6-2.5c-0.8-1.9-2.1-3.6-5.3-4.6c-1-0.4-1.8-0.2-2.1,0.4c-2,2.9-2.5,4.8-5.7,6.7
		c-3.5,2.1-3.9,0-4.5,4c-0.6,4.2,1.4,7.5-3.9,10.2c-4.7,2.3-10.7,1-15.6,2.5c-5.3,1.7-5.3,6.3-7.4,10.2c-1.6-0.8-3.3-1.5-5.1-2.1
		c-1.4,2.7-3.5,1.7-5.9,2.7c0.4-0.2-6.6,2.5-4.1,2.9c-2.7-0.4-4.3,1-4.5,3.3c-4.7-1.7-2.1,6.9-9,1.5c-1.4-1.2-3.1-1.5-4.7,0
		c-0.2,0.2-0.4,0.2-0.6,0.4c-1.4,1-2.7,0.8-3.3-0.4s-1.2-2.5-1.6-3.6c-0.8-1.9-1.2-4-2.3-5.8c-1.4-1.9-1.8-4-2.3-6.1
		c-0.4-1.5-0.8-3.1-1.4-4.6c-0.2-0.8-1-1.3-1.6-1.9c-0.2,0-0.4,0-0.6,0c-0.2,1-0.4,1.7-0.6,2.7c-0.4,1.7-0.6,3.3-1.2,5
		c-0.6,2.1-1.2,4.2-2,6.3c-0.6,2.1-1.4,4-1.8,6.1c-0.6,2.3-1,4.4-1.2,6.7c-0.2,1.3-0.6,2.5-2.3,3.3c-1,0.6-2.3,0.4-2.9-0.2
		c-0.6-0.6-1-1.3-1.2-2.1c-0.8-2.7-1.6-5.4-2.3-7.9c-0.2-0.8-0.4-1.7-1.8-2.5c-0.2,0.4-0.2,0.6-0.4,1c-0.2,2.5-0.4,5.2-0.8,7.7
		c-0.2,1.5-0.8,3.1-1.4,4.4c-0.2,0.4-0.4,0.8-0.8,1.2c31.8,0.2,63.4,1.2,94,8.2c11.9-0.4,23.8,0,35.5,0.8c1.6-1,3.1-2.1,4.5-3.1
		c2-1.5,3.3-3.3,3.3-5.4C885,744.9,884.6,744.4,883.4,744.2z"/>
	<path class="st4" d="M668.1,744c-0.6-1.5-0.8-3.3-1.4-4.8c-0.4-1.3-1-2.5-1.8-3.6c-0.2-0.4-1-0.8-1.6-1c-0.4,0.4-1,1-1,1.3
		c-0.2,2.1,0,4.2-0.2,6.3c0,0.6-0.2,1-0.2,1.5C664,743.8,665.9,743.8,668.1,744z"/>
	<path class="st2" d="M857.9,744.6c-0.2,0-0.2,0-0.4,0v8.8c31.8,0.6,63.4,5.4,94.8,8.6c37.6,3.8,75.3,7.5,112.9,11.9
		c36.7,4.2,73.2,9.4,108.9,16.9c9.6-9.6,17-22.8,13.9-32.8c-3.7-12.5-7.6-7.3-16.2-12.7c-10-6.3-7.8-10-20.3-9.6
		c-5.1,0.2-11.5,4.6-14.4,4.6c-5.1-0.2-10.1-2.1-14.6-5c-7.2-4.6-13.5-11.3-17.7-16.3c1.4-1.2,3.9-3.5,3.3-5.2s-1-3.6,1-5.2
		c0.4-0.2,0-1-0.4-1.3c-0.2-0.2-1-0.4-1.6-0.6c-0.6,0-1.4,0-2.1,0c-1.2,0-2-0.2-2.1-1.2c-0.2-0.8,0-1.7-0.2-2.5
		c-0.4-2.1-1.6-3.8-4.5-5.2c-1-0.4-1.8-0.4-2.3,0.2c-0.6,0.8-1.2,1.5-1.6,2.3c-1.6,2.1-3.3,4.2-7.8,4.2c-2,0-2.3,0.4-2.3,1.7
		c0,1,0.2,1.7,0.2,2.7c0.2,1.2-0.2,2.1-2,2.5c-0.6,0.2-1,0.4-1.4,0.8c-1,1.2-1.9,2.3-2.7,3.6c-0.6,1-1.2,1.9-2.5,2.3
		c-2.1,0.6-4.3,1.3-6.6,1.5c-1.4,0.2-1.6,0.6-1.6,1.3c0,2.3,1.4,4.2,3.1,6.1c1.4,1.5,1.4,1.7-1,2.5c-0.2,0-0.6,0.2-0.8,0.2
		c-2,0.2-3.9,0.6-5.8,0.8c-1,0-1.8,0.4-1.8,1c0,1-0.2,1.9,0.2,2.9c0.6,1.3,1.6,2.5,2.3,3.6c0.6,1,1.2,1.7,0.4,2.7
		c-1.6,2.1-4.1,3.5-6.6,5c-0.2,0.2-1.2,0.2-1.4,0c-2.1-1.7-4.5-3.6-5.3-5.8c-0.8-2.5-1.6-5.2-1.4-7.7c0.2-1.2-0.2-2.3-0.4-3.5
		c0-0.4-0.8-0.6-1.2-1c-0.4,0.2-1,0.4-1.2,0.8c-0.8,1.3-1.6,2.9-2.3,4.2c-1,1.7-2.1,3.5-3.1,5.2c-0.2,0.4-1,0.8-1.4,0.6
		c-0.6-0.2-1.4-0.6-1.6-1c-0.4-1-0.6-1.9-1-3.1c-0.2-0.8-0.2-1.7-1.8-2.3c-0.8,1.3-1.4,2.7-2.1,4c-0.4,0.6-0.8,1.3-1.6,1.7
		c-1,0.8-2.1,0.8-3.1,0c-0.8-0.6-1.4-1.3-2-2.1c-1.2-1.3-2-2.7-3.1-4c-1.2-1.2-2.9-1.7-4.7-0.6c-0.2,0.2-0.4,0.2-0.6,0.4
		c-1.4,0.8-2.9,0.4-3.3-0.8c-0.4-1.3-0.8-2.5-1-3.8c-0.4-2.1-0.4-4-1.4-6.1s-1.2-4.2-1.2-6.3c0-1.5-0.4-3.3-0.8-4.8
		c-0.2-0.8-0.8-1.3-1.4-2.1c-0.2,0-0.4,0-0.6,0c-0.4,0.8-0.6,1.7-1,2.5c-0.6,1.5-1.2,3.3-2,4.8c-1,2.1-2,4-2.9,5.9s-1.9,3.8-2.7,5.8
		c-1,2.1-1.6,4.4-2.3,6.5c-0.4,1.2-1,2.3-2.7,2.9c-1.2,0.4-2.3,0.2-2.9-0.6c-0.4-0.8-0.8-1.3-0.8-2.1c-0.4-2.7-0.6-5.4-1.2-8.1
		c-0.2-0.8,0-1.7-1.4-2.7c-0.2,0.4-0.4,0.6-0.4,0.8c-0.8,2.5-1.2,5-2.1,7.5c-0.4,1.5-1.2,2.9-2,4.2c-0.4,0.8-1.4,1.5-2,2.3
		c-1,1.7-1.6,3.6-2.5,5.4c-0.6,1.2-1.8,2.1-3.9,2.5c0-0.4,0-0.8,0-1c0-1.7-1-3.3-3.1-4.4c-0.8-0.4-1-0.6-0.4-1.2
		c2-2.1,1.4-5-1.2-6.9c-1.6-1.2-3.1-1.2-4.3,0c-0.8,0.8-1.2,1.5-1.8,2.3c-0.8,1-1.2,2.1-2.1,3.1c-0.6,0.6-1.6,1-2.5,1
		c-1.2,0.2-2.1-0.6-2.5-1.3c-0.6-0.8-0.8-1.7-1-2.5c-0.4-1.7-0.4-3.5-0.8-5c-0.2-0.8-0.8-1.3-1.2-2.1c-1.6,0.4-2.1,1-2.5,1.7
		c-0.4,1-0.4,1.9-0.8,2.9c-0.6,1.7-1.2,3.6-2.1,5.4c-0.8,1.3-2.3,2.3-4.7,2.9c-1.2,0.2-2.1-0.2-2.7-0.8c-0.8-0.6-0.8-1.2-0.4-1.7
		c1.4-2.3,2.3-4.6,2.3-7.3c0-1.2-0.4-2.1-1.6-2.9c-0.8-0.6-0.8-1.2-0.4-1.5c0.4-0.6,1-1,1.4-1.5c0.6-1,1.2-1.9,1.6-2.7
		c0.2-0.6-0.2-1.2-1.2-1.5c-1.4-0.4-1.6-1.2-1.6-2.1c0.2-1.3,0.4-2.5,0.6-3.8c0-1.3-1.8-2.7-3.7-2.9c-1.6-0.2-2.5,0.4-3.3,1.9v0.2
		c-0.6,2.7-2,5.2-3.7,7.7c-0.8,1.2-1.6,2.1-2.5,3.1c-0.8,0.8-1.6,0.6-2.3-0.2c-0.2-0.2-0.6-0.6-0.6-0.8c-0.4-1.3-0.8-2.9-0.8-4.2
		c0-1.7-0.6-3.3-2-4.8c-1.4-1.7-2.1-3.5-1.8-5.4c0.4-1.2,0.4-2.5,0.4-3.6c0-1,0-1.9-1.4-2.9c-0.2,0.2-0.2,0.2-0.4,0.4
		c-1.6,3.1-2.9,6.1-4.5,9c-1,2.1-2.1,4.2-3.1,6.3c-0.8,1.7-1.6,3.6-2.1,5.4c-0.6,1.3-1,2.7-2.3,3.8c-0.6,0.4-1.4,1-2.3,0.6
		c-0.6-0.2-1.4-1-1.4-1.3c-0.4-1.7-0.4-3.5-0.6-5.4c-0.2-1.3-0.6-2.5-1.2-3.8c-0.2-0.4-1-0.8-1.4-1.2c-0.4,0.4-1,0.8-1.2,1.3
		c-0.6,2.1-0.8,4.2-1.4,6.1c-0.4,1.5-1.2,3.1-1.8,4.6c-0.2,0.2-0.8,0.6-1,0.6c-0.6-0.2-1.2-0.4-1.4-0.8c-0.6-0.8-0.8-1.7-1.2-2.7
		s-0.6-2.1-2.1-2.9c-0.2,0.2-0.4,0.4-0.4,0.6c-1.4,4-2.7,7.9-4.1,11.9c-1.2,3.3-2.5,6.3-4.7,9.4c-1,1.3-2.3,2.3-4.3,2.9
		c-0.4,0.2-1.2,0-1.8,0c0-0.4-0.2-0.8,0-1.2c0.4-0.6,0.8-1,1.4-1.3c1.2-1.3,2.5-2.5,3.5-4c0.8-1.2,0.4-2.3-1.2-3.1
		c-0.8-0.4-1.4-0.8-2-1.3c-2.7-1.9-4.5-4.2-5.7-6.7c-0.4-0.8-1.2-1.3-2.5-1.5c-1.2-0.2-2.3,0-2.7,0.8c-0.8,1.2-1.4,2.3-2,3.6
		c-0.8,1.5-1.6,3.3-2.3,4.8c-0.6,1.2-2.1,1.7-3.7,1.5c-1.2-0.2-2,0-2.3,0.4v1.3c0.2,0.6,0.6,1.2,1,1.7
		C859,743.6,858.8,744.2,857.9,744.6z"/>
	<path class="st5" d="M988,765.7c25.7,2.7,51.5,5.2,77.1,8.2c29.3,3.5,58.3,7.3,87.2,12.7c14.4,2.7,28.5,6.3,42.9,9
		c10.5,1.9,20.3,6.1,31,7.7c9.4,1.3,25.2,9.4,32,6.7c10.3-4.2,16.6-21.9,24-29.2c4.5-4.4-12.1-23-21.8-23.2
		c-8.6-0.2-16.6-2.1-24.4-3.1c-14.6-1.7-14.4,0.2-12.3-10.6c-1.2,0.2-9,1.3-8.4-0.6c0.2-0.6,0.8-1.2,1.4-1.5c2-0.8,2.3-1.7,2-3.3
		c-0.4-1.7-0.8-3.6,1.2-5.2c0.4-0.2,0-1-0.2-1.3c-0.2-0.4-1-0.6-1.6-0.6s-1.4,0-2.1,0c-1.2,0-2-0.4-2.1-1.2c-0.2-0.8,0-1.7-0.2-2.5
		c-0.4-2.1-1.4-4-4.3-5.4c-1-0.4-1.8-0.6-2.3,0c-0.6,0.8-1.2,1.5-1.8,2.1c-1.8,2.1-3.5,4-8,4c-2,0-2.5,0.4-2.5,1.7
		c0,1,0,1.7,0.2,2.7c0.2,1.2-0.4,2.1-2.1,2.5c-0.6,0.2-1.2,0.4-1.4,0.8c-1,1.2-2,2.3-2.9,3.5c-0.6,0.8-1.2,1.7-2.7,2.1
		c-2.1,0.6-4.5,1.2-6.8,1.3c-1.4,0.2-1.6,0.6-1.8,1.3c-0.2,2.3,1.2,4.2,2.9,6.1c1.4,1.5,1.2,1.7-1,2.5c-0.2,0-0.6,0.2-0.8,0.2
		c-2,0.2-3.9,0.4-5.8,0.6c-1,0-1.8,0.2-1.8,1c-0.2,1-0.2,1.9,0.2,2.9c0.6,1.3,1.6,2.5,2.1,3.6c0.6,1,1,1.7,0.4,2.7
		c-1.6,1.9-4.3,3.5-6.8,4.8c-0.2,0.2-1.2,0-1.4,0c-2.1-1.9-4.3-3.6-4.9-5.9c-0.8-2.5-1.4-5.2-1-7.9c0.2-1.2,0-2.3-0.2-3.5
		c0-0.4-0.8-0.8-1.2-1c-0.4,0.2-1,0.4-1.2,0.8c-1,1.3-1.6,2.9-2.5,4.2c-1.2,1.7-2.2,3.5-3.3,5.2c-0.2,0.4-1,0.8-1.4,0.6
		c-0.6-0.2-1.4-0.6-1.6-1c-0.4-1-0.6-2.1-1-3.1c-0.2-0.8,0-1.7-1.6-2.3c-0.8,1.3-1.6,2.7-2.3,4c-0.4,0.6-1,1.2-1.6,1.7
		c-1,0.8-2.1,0.8-3.1-0.2c-0.8-0.6-1.4-1.3-2-2.1c-1-1.3-1.8-2.9-3.1-4c-1.2-1.2-2.9-1.9-4.7-0.6c-0.2,0.2-0.4,0.2-0.6,0.4
		c-1.4,0.8-2.9,0.4-3.3-0.8c-0.4-1.3-0.6-2.7-0.8-3.8c-0.4-2.1-0.2-4-1.2-6.1s-1-4.2-1-6.3c0-1.5-0.2-3.3-0.4-4.8
		c-0.2-0.8-0.8-1.5-1.2-2.1c-0.2,0-0.4,0-0.6,0c-0.4,0.8-0.8,1.7-1.2,2.5c-0.8,1.5-1.4,3.1-2.1,4.6c-1,1.9-2.1,4-3.1,5.9
		s-2.1,3.8-3.1,5.8c-1,2.1-1.8,4.2-2.5,6.5c-0.4,1.2-1.2,2.3-2.9,2.9c-1.2,0.4-2.3,0-2.9-0.8c-0.4-0.8-0.6-1.5-0.8-2.1
		c-0.4-2.7-0.4-5.4-0.8-8.1c-0.2-0.8,0-1.7-1.4-2.7c-0.2,0.4-0.4,0.6-0.4,0.8c-0.8,2.5-1.6,5-2.3,7.5c-0.6,1.5-1.4,2.9-2.1,4.2
		c-0.6,0.8-1.6,1.5-2,2.3c-1,1.7-1.8,3.6-2.7,5.4c-0.8,1.2-1.8,2.1-4.1,2.3c0-0.4,0-0.8,0-1c0-1.7-0.8-3.3-2.9-4.4
		c-0.8-0.4-1-0.8-0.4-1.2c2-2.1,1.6-5-1-6.9c-1.6-1.2-3.1-1.2-4.3-0.2c-0.8,0.6-1.2,1.5-1.8,2.3c-0.8,1-1.4,2.1-2.3,3.1
		c-0.6,0.6-1.6,1-2.5,1c-1.2,0-2-0.6-2.3-1.3c-0.4-0.8-0.8-1.7-1-2.5c-0.2-1.7-0.2-3.5-0.6-5.2c-0.2-0.8-0.6-1.3-1-2.1
		c-1.6,0.4-2.3,1-2.5,1.7c-0.4,1-0.4,1.9-0.8,2.9c-0.8,1.7-1.4,3.6-2.3,5.2c-0.8,1.3-2.3,2.3-4.9,2.7c-1.2,0.2-2.1-0.2-2.7-0.8
		s-0.8-1.2-0.4-1.7c1.6-2.3,2.5-4.6,2.7-7.1c0-1.2-0.2-2.1-1.6-3.1c-0.8-0.6-0.8-1.2-0.4-1.5c0.4-0.6,1-1,1.4-1.5
		c0.6-1,1.2-1.7,1.6-2.7c0.2-0.6-0.2-1.2-1-1.5c-1.4-0.6-1.6-1.2-1.4-2.1c0.2-1.2,0.6-2.5,0.8-3.6c0.2-1.3-1.6-2.7-3.5-3.1
		c-1.6-0.2-2.5,0.4-3.3,1.7v0.2c-0.8,2.7-2.2,5.2-4.1,7.5c-0.8,1-1.6,2.1-2.7,3.1c-0.8,0.8-1.6,0.6-2.3-0.2
		c-0.2-0.2-0.4-0.6-0.6-0.8c-0.2-1.3-0.6-2.9-0.6-4.2c0-1.7-0.4-3.3-1.8-4.8c-1.4-1.7-2-3.5-1.4-5.4c0.4-1.2,0.6-2.5,0.6-3.6
		c0-1,0-1.9-1.2-2.9c-0.2,0.2-0.2,0.2-0.4,0.4c-1.6,3.1-3.1,5.9-4.9,9c-1.2,2.1-2.3,4-3.3,6.1c-1,1.7-1.6,3.6-2.3,5.4
		c-0.6,1.3-1.2,2.7-2.5,3.8c-0.6,0.4-1.4,1-2.3,0.4c-0.6-0.4-1.4-1-1.4-1.5c-0.2-1.7-0.2-3.6-0.4-5.4c-0.2-1.3-0.6-2.7-1-3.8
		c-0.2-0.4-1-0.8-1.4-1.2c-0.4,0.4-1,0.8-1.2,1.2c-0.6,2.1-1,4.2-1.6,6.1c-0.4,1.5-1.2,3.1-2,4.4c-0.2,0.2-0.8,0.6-1,0.6
		c-0.6-0.2-1.2-0.4-1.4-0.8c-0.4-1-0.8-1.7-1.2-2.7s-0.4-2.1-2.1-2.9c-0.2,0.2-0.4,0.4-0.4,0.6c-1.6,3.8-3.1,7.9-4.5,11.7
		c-1.2,3.3-2.7,6.3-5.1,9.2C991.5,764.1,989.9,765.1,988,765.7z"/>
	<path class="st5" d="M952.3,762c11.3,1.2,22.6,2.3,33.9,3.5c0-0.4-0.2-0.6,0-1c0.4-0.6,1-1,1.4-1.3c1.2-1.3,2.5-2.5,3.7-3.8
		c1-1.2,0.4-2.1-1.2-3.1c-0.8-0.4-1.4-1-2-1.3c-2.7-2.1-4.3-4.4-5.3-6.9c-0.4-0.8-1-1.5-2.3-1.7c-1.2-0.2-2.3,0-2.9,0.8
		c-0.8,1.2-1.4,2.3-2,3.5c-0.8,1.5-1.6,3.3-2.5,4.8c-0.6,1.2-2.3,1.5-3.7,1.3c-2-0.4-2.9,0.2-2.5,1.5c0.2,0.8,0.8,1.3,1.2,2.1
		s0.2,1.5-0.8,1.7s-1.8,0-2.5-0.6c-2.3-1.5-2.9-3.5-3.5-5.4s-0.8-3.8-1.4-5.8c-0.2-1-0.6-1.9-1-2.9c-0.2,0-0.2,0-0.4-0.2
		c-0.4,0.2-0.8,0.4-1,0.8c-0.6,1.2-1,2.5-1.6,3.6c-0.6,1-1.4,2.1-2,3.1s-1.4,1.7-2,2.7c-1,1.3-1.8,2.9-2.5,4.2
		C950.1,761.6,951.1,761.8,952.3,762z"/>
	<path class="st5" d="M873.3,754c22.4,1.3,44.7,4.2,66.9,6.7c0-1-0.4-1.7-1.2-2.7c-2.3-2.5-3.7-5-4.1-7.9c0-0.8-0.6-1.2-1.6-1.2
		c-0.8,0-1.6-0.2-2.3,0c-1.4,0.2-2.7,0.6-4.1,0.8c-1.2,0.2-1.4,0-1.6-0.8c-0.6-2.5-1-5-1.8-7.7s-1.6-5.4-0.8-8.2
		c0.2-0.8,0.2-1.7,0.2-2.5c0-0.6-0.2-1.2-0.6-1.7c-0.4-0.8-1.6-1-2.1-0.2c-0.8,0.8-1.4,1.7-1.8,2.5c-1.4,2.7-2.5,5.4-3.9,8.1
		c-0.8,1.3-2.5,1.7-4.9,1.2c-2.1-0.6-2.7-1.9-1-2.9c0.4-0.2,0.6-0.4,1-0.6c2-1,2.3-2.1,1.4-3.6c-0.2-0.4-0.6-1-0.8-1.3
		c-1.2-1.9-2.3-3.8-2-5.9c0.4-1.7-0.2-3.3-1.2-4.8c-1-1.7-1.6-3.3,0.2-4.8c0.2-0.2,0.4-0.6,0.4-1c-0.2-1.2-0.4-2.5-1-3.6
		c-0.8-2.1-2-4.2-1.2-6.3c0-0.2,0.2-0.4,0-0.6c-0.2-0.4-0.6-0.8-1-0.8s-1,0.2-1.2,0.4c-0.4,0.4-0.6,0.8-0.6,1.2
		c0.2,3.1-1.8,5.4-3.5,7.9c-1.4,1.9-2.7,3.8-2.7,6.1c0,0.4-0.2,0.8-0.4,1s-0.6,0.4-1,0.4s-0.8-0.4-1-0.6c-0.6-0.8-1-1.7-1.4-2.7
		c-0.4,0.2-0.8,0.4-1,0.6c-0.6,0.8-1,1.3-1.4,2.1c-1,2.9-1.8,5.8-3.7,8.2c-0.2,0.2-0.2,0.4-0.4,0.6c-0.6,1.2-1.4,2.3-2,3.5
		c-1.2,2.1-2.5,4-3.7,6.1s-2,4.4-2.9,6.7c-1.2,2.1-2.3,4.2-4.7,5.8c-0.4,0.2-0.4,0.8-0.2,1.2C873.1,753.2,873.3,753.6,873.3,754z"/>
	<path class="st4" d="M952.3,762c4.5,0.4,9,1,13.3,1.3c-0.2-0.2-0.6-0.4-0.8-0.6c-2.7-2.1-4.3-4.4-5.3-6.9c-0.4-0.8-1-1.5-2.3-1.7
		c-1.2-0.2-2.3,0-2.9,0.8c-0.8,1.2-1.4,2.3-2,3.5s-1.2,2.3-1.8,3.5C950.9,761.8,951.5,761.8,952.3,762z"/>
	<path class="st4" d="M852.6,753.2c16.6,0.2,33,1.3,49.4,3.1c-0.6-2.3-1-4.8-1.6-7.1c-0.8-2.7-1.6-5.4-0.8-8.2
		c0.2-0.8,0.2-1.7,0.2-2.5c0-0.6-0.2-1.2-0.6-1.7c-0.4-0.8-1.6-1-2.1-0.2c-0.8,0.8-1.4,1.7-1.8,2.5c-1.4,2.7-2.5,5.4-3.9,8.1
		c-0.8,1.3-2.5,1.7-4.9,1.2c-2.1-0.6-2.7-1.9-1-2.9c0.4-0.2,0.6-0.4,1-0.6c2-1,2.3-2.1,1.4-3.6c-0.2-0.4-0.6-1-0.8-1.3
		c-1.2-1.9-2.3-3.8-2-5.9c0.4-1.7-0.2-3.3-1.2-4.8c-1-1.7-1.6-3.3,0.2-4.8c0.2-0.2,0.4-0.6,0.4-1c-0.2-1.2-0.4-2.5-1-3.6
		c-0.8-2.1-2-4.2-1.2-6.3c0-0.2,0.2-0.4,0-0.6c-0.2-0.4-0.6-0.8-1-0.8c-1.8-0.4-5.9,13.6-8.2,15.5c-5.7,5-16.2,2.7-21.5,8.6
		c-4.9,5.6-0.2,9.4,0.8,15C852.6,752,852.6,752.6,852.6,753.2z"/>
	<path class="st4" d="M1065.2,773.7c34.7,4.2,73.3,6.7,106.7,16.3c26.5,7.7,58.7,9.2,82.5,23c9.4-10.2,18.7-21.5,27.5-32.2
		c-2-1.2-5.3-5.2-7.2-5.6c-3.9-0.8-11.9,2.3-16.2,2.5c-5.7,0.2-14.4,1.3-19.5,1c-6.2-0.4-9.4-3.8-14.8-5c-8-1.5-25.2,3.5-20.5-10
		c-2.5,0.6-5.9,1-8.2,0c-2.5-1-2.9-3.1-1-4.2c1.2-0.8,2.3-1.5,3.3-2.3c1.4-1.3,2.5-2.7,2.5-4.4c0-1.3-0.8-1.9-2.7-1.3
		c-1.2,0.2-2.1,0.6-3.1,0.8c-1.6,0.4-2.7-0.2-2.3-1.3c0.2-0.6,0.8-1.2,1.4-1.5c2-0.8,2.3-1.7,2-3.3c-0.4-1.7-0.8-3.6,1.2-5.2
		c0.4-0.2,0-1-0.2-1.3c-0.2-0.4-1-0.6-1.6-0.6c-0.8,0-1.4,0-2.1,0c-1.2,0-2-0.4-2.1-1.2c-0.2-0.8,0-1.7-0.2-2.5
		c-0.4-2.1-1.4-4-4.3-5.4c-1-0.4-1.8-0.6-2.3,0c-0.6,0.8-1.2,1.5-1.8,2.1c-1.8,2.1-3.5,4.2-8,4c-2,0-2.5,0.4-2.5,1.7
		c0,1,0,1.7,0.2,2.7c0.2,1.2-0.4,2.1-2.1,2.5c-0.6,0.2-1.2,0.4-1.4,0.8c-1,1.2-2,2.3-2.9,3.5c-0.6,0.8-1.2,1.7-2.7,2.1
		c-2.1,0.6-4.5,1.2-6.8,1.3c-1.4,0.2-1.6,0.6-1.6,1.3c-0.2,2.3,1.2,4.2,2.9,6.1c1.4,1.5,1.2,1.7-1,2.5c-0.2,0-0.6,0.2-0.8,0.2
		c-2,0.2-3.9,0.4-5.8,0.6c-1,0-1.8,0.2-1.8,1c0,1-0.2,1.9,0.2,2.9c0.6,1.3,1.6,2.5,2.1,3.8c0.6,1,1,1.7,0.4,2.7
		c-1.6,1.9-4.3,3.5-6.8,4.8c-0.2,0.2-1.2,0-1.4,0c-2.2-1.9-4.3-3.6-4.9-5.9c-0.8-2.5-1.4-5.2-1-7.9c0.2-1.2,0-2.3-0.2-3.5
		c0-0.4-0.8-0.8-1.2-1c-0.4,0.2-1,0.4-1.2,0.8c-1,1.3-1.6,2.9-2.5,4.2c-1.2,1.7-2.1,3.5-3.3,5.2c-0.2,0.4-1,0.8-1.4,0.6
		c-0.6-0.2-1.4-0.6-1.6-1c-0.4-1-0.6-2.1-1-3.1c-0.2-0.8,0-1.7-1.6-2.3c-0.8,1.3-1.6,2.7-2.3,4c-0.4,0.6-1,1.2-1.6,1.7
		c-1,0.8-2.1,0.8-3.1-0.2c-0.8-0.6-1.4-1.3-2-2.1c-1-1.3-1.8-2.9-3.1-4c-1.2-1.2-2.9-1.9-4.7-0.6c-0.2,0.2-0.4,0.2-0.6,0.4
		c-1.4,0.8-2.9,0.4-3.3-0.8c-0.4-1.3-0.6-2.5-0.8-3.8c-0.4-2.1-0.2-4-1.2-6.1s-1-4.2-1-6.3c0-1.5-0.2-3.3-0.4-4.8
		c-0.2-0.8-0.8-1.5-1.2-2.1c-0.2,0-0.4,0-0.6,0c-0.4,0.8-0.8,1.7-1.2,2.5c-0.8,1.5-1.4,3.1-2.1,4.6c-1,1.9-2.1,4-3.1,5.9
		s-2.1,3.8-3.1,5.8c-1,2.1-1.8,4.2-2.5,6.5c-0.4,1.2-1.2,2.3-2.9,2.9c-1.2,0.4-2.3,0-2.9-0.8c-0.4-0.8-0.6-1.5-0.8-2.1
		c-0.4-2.7-0.4-5.4-0.8-8.1c-0.2-0.8,0-1.7-1.4-2.7c-0.2,0.4-0.4,0.6-0.4,0.8c-0.8,2.5-1.6,5-2.3,7.5c-0.6,1.5-1.4,2.9-2.2,4.2
		c-0.6,0.8-1.6,1.5-1.9,2.3c-1,1.7-1.8,3.6-2.7,5.4c-0.4,0.6-0.8,1-1.4,1.3C1064.8,773.7,1065,773.7,1065.2,773.7z"/>
	<path class="st4" d="M1062.1,773.3c0-1.7-0.8-3.1-2.9-4.2c-0.8-0.4-1-0.8-0.4-1.2c2-2.1,1.6-5-1-6.9c-1.6-1.2-3.1-1.2-4.3-0.2
		c-0.8,0.6-1.2,1.5-1.8,2.3c-0.8,1-1.4,2.1-2.3,3.1c-0.6,0.6-1.6,1-2.5,1c-1.2,0-2-0.6-2.3-1.3c-0.4-0.8-0.8-1.7-1-2.5
		c-0.2-1.7-0.2-3.5-0.6-5.2c-0.2-0.8-0.6-1.3-1-2.1c-1.6,0.4-2.3,1-2.5,1.7c-0.4,1-0.4,1.9-0.8,2.9c-0.8,1.7-1.4,3.6-2.3,5.2
		c-0.8,1.3-2.3,2.3-4.9,2.7c-1.2,0.2-2.1-0.2-2.7-0.8s-0.8-1.2-0.4-1.7c1.6-2.3,2.5-4.6,2.7-7.1c0-1.2-0.2-2.1-1.6-3.1
		c-0.8-0.6-0.8-1.2-0.4-1.5c0.4-0.6,1-1,1.4-1.5c0.6-1,1.2-1.7,1.6-2.7c0.2-0.6-0.2-1.2-1-1.5c-1.4-0.6-1.6-1.2-1.4-2.1
		c0.2-1.2,0.6-2.5,0.8-3.6c0.2-1.3-1.6-2.7-3.5-3.1c-1.6-0.2-2.5,0.4-3.3,1.7v0.2c-0.8,2.7-2.2,5.2-4.1,7.5c-0.8,1-1.6,2.1-2.7,3.1
		c-0.8,0.8-1.6,0.6-2.3-0.2c-0.2-0.2-0.4-0.6-0.6-0.8c-0.2-1.3-0.6-2.9-0.6-4.2c0-1.7-0.6-3.3-1.8-4.8c-1.4-1.7-2-3.5-1.4-5.4
		c0.4-1.2,0.6-2.5,0.6-3.6c0-1,0-1.9-1.2-2.9c-0.2,0.2-0.2,0.2-0.4,0.4c-1.6,3.1-3.1,5.9-4.9,9c-1.2,2.1-2.3,4-3.3,6.1
		c-1,1.7-1.6,3.6-2.3,5.4c-0.6,1.3-1,2.7-2.5,3.8c-0.6,0.4-1.4,1-2.3,0.4c-0.6-0.4-1.4-1-1.4-1.5c-0.2-1.7-0.2-3.6-0.4-5.4
		c-0.2-1.3-0.6-2.7-1-3.8c-0.2-0.4-1-0.8-1.4-1.2c-0.4,0.4-1,0.8-1.2,1.2c-0.6,2.1-1,4.2-1.6,6.1c-0.4,1.5-1.2,3.1-2,4.4
		c-0.2,0.2-0.8,0.6-1,0.6c-0.6-0.2-1.2-0.4-1.4-0.8c-0.4-1-0.8-1.7-1.2-2.7s-0.4-2.1-2.1-2.9c-0.2,0.2-0.4,0.4-0.4,0.6
		c-1.6,3.8-3.1,7.9-4.5,11.7c-0.4,0.8-0.6,1.5-1,2.3C1002.8,767,1032.4,770.1,1062.1,773.3z"/>
</g>
<g id="Layer_6">
	<path class="st6" d="M650,745.1c9.5,0.6,18.9,1,28.4,1.4c10.5,0.4,21,0.6,31.4,0.6C688.9,746,669,745.5,650,745.1z"/>
	<path class="st6" d="M1479,822.4v57.1H-31V752c34.9-2.4,81.8-5.1,137.9-8.1c113.5-5.5,263.5-10.6,423-9.7
		c145.8,1,299.4,7.1,439.7,22.5C1285.2,791.7,1423.3,812.5,1479,822.4z"/>
	<path class="st7" d="M1358,827.5V852H-31V752c34.9-2.4,81.8-5.1,137.9-8.1c113.5-5.5,263.5-10.6,423-9.7
		c107.9,7.1,216.9,16.4,318.9,27.6C1164.3,796.8,1302.4,817.7,1358,827.5z"/>
	<path class="st8" d="M1358,878v24.4H-31V774.7c34.9-2.4,81.8-5.1,137.9-8.1c213.7,3.7,497.7,18.7,741.7,45.7
		C1164.3,847.2,1302.4,868.1,1358,878z"/>
	<path class="st9" d="M1481,667.3V1091H-30V718C-30,718,1151.6,986.7,1481,667.3z"/>
	<path class="st6" d="M1481,720.3v392.9H-30V771c0,0,4.2,1,12.5,2.8c50,10.8,244.3,51.2,480.4,78c230.2,26.2,500.4,39.4,715.5,0
		c0.4,0,0.6-0.2,1-0.2c45.4-8.3,88.3-19.1,127.8-32.5c13.5-4.5,26.6-9.5,39.3-14.8c1.4-0.6,2.6-1,3.8-1.6
		C1401.8,781.2,1446.1,754,1481,720.3z"/>
	<path class="st7" d="M1481,657.3v456H-30V996.6c590.3,36.8,951.6-18.3,1171.9-94.2c21.6-7.5,41.7-15,60.5-22.7
		c15.3-6.3,29.8-12.6,43.3-18.9c6.2-3,12.5-5.9,18.4-8.9c20.6-10.2,39.1-20.5,56-30.5c9.3-5.5,18.1-11.2,26.2-16.7
		c0.8-0.6,1.8-1.2,2.6-1.8c79.6-54.2,112.5-104.2,125.2-129.1C1479.4,663.4,1481,657.3,1481,657.3z"/>
	<path class="st8" d="M1481,955.2v158H-30v-93.8C-30,1019.4,928.6,1123.1,1481,955.2z"/>
</g>
<g id="Layer_7">
	<path class="st10" d="M216.2,356.3c4.4,1.1,8.2,5.5,8.7,10c2.5-1,5.1-1.6,7.6-1.3c2.5,0.4,5.1,1.6,5.5,4.2c-0.1-2.5-0.8-5-1.9-7.2
		c-0.2-0.4-0.5-1-1-1.1c-0.7-0.4-1.6-0.1-2.4,0.1c-2.2,1-4.4,2-6.4,3.3c-0.4-1.9-0.3-4.5-0.9-6.3c-0.2-0.7-0.4-1.3-1-1.8
		c-0.6-0.5-1.4-0.7-2.1-0.8c-3.7-0.7-7.4-1-11.2-1C212.8,356.1,213.9,355.7,216.2,356.3z"/>
	<path class="st10" d="M1244.2,433.4c7.3-3.5,17.3-2,23,3.5c2.4-4.1,4.9-8.1,8.6-10.4c3.7-2.6,8.6-3.5,12.2-0.8
		c-2.9-3.1-6.7-5.7-10.8-7.3c-0.8-0.2-1.8-0.6-2.6-0.4c-1.4,0.2-2.4,1.6-2.9,2.9c-2,3.5-3.5,7.5-4.7,11.6c-2.6-2.2-5.5-5.7-8.3-7.5
		c-1-0.6-2.2-1.4-3.3-1.4c-1.4,0-2.6,0.8-3.7,1.4c-5.7,3.3-11,7.3-15.9,11.6C1239.7,437,1240.7,435.2,1244.2,433.4z"/>
</g>
</svg>
